<?xml version="1.0" standalone="no"?>
<!DOCTYPE svg PUBLIC "-//W3C//DTD SVG 20010904//EN"
 "http://www.w3.org/TR/2001/REC-SVG-20010904/DTD/svg10.dtd">
<svg version="1.0" xmlns="http://www.w3.org/2000/svg"
 width="5000.000000pt" height="5000.000000pt" viewBox="0 0 5000.000000 5000.000000"
 preserveAspectRatio="xMidYMid meet">

<g transform="translate(0.000000,5000.000000) scale(0.100000,-0.100000)"
fill="#000000" stroke="none">
<path d="M23864 46348 c-2 -3 -16 -5 -29 -2 -14 2 -25 0 -25 -6 0 -7 -8 -9
-21 -5 -14 5 -19 4 -15 -4 4 -6 1 -9 -7 -5 -8 3 -17 -2 -20 -10 -4 -9 -12 -16
-19 -16 -9 0 -8 3 2 10 20 13 4 13 -21 -1 -11 -5 -17 -14 -14 -18 2 -5 -3 -8
-12 -7 -18 1 -66 -61 -57 -75 3 -5 0 -9 -6 -9 -8 0 -10 -20 -7 -66 4 -50 11
-72 29 -92 12 -15 16 -22 8 -17 -10 6 -9 4 2 -6 9 -9 14 -19 11 -23 -3 -3 8
-12 26 -19 17 -7 29 -16 26 -19 -3 -3 8 -10 24 -16 17 -6 31 -8 31 -5 0 3 7 0
15 -7 8 -6 19 -9 24 -6 5 4 12 2 16 -4 14 -22 229 -5 261 21 6 5 14 6 17 2 4
-3 7 -1 7 5 0 7 3 11 8 11 19 -3 33 2 27 10 -3 5 0 13 6 17 8 4 9 3 5 -4 -10
-17 9 -15 24 3 6 8 9 19 5 24 -3 7 0 8 9 5 14 -6 21 5 17 29 0 4 3 7 7 7 10 0
13 18 13 84 0 60 -32 128 -75 161 -43 33 -112 56 -145 49 -21 -4 -23 -3 -11 5
11 9 -3 11 -58 9 -41 -1 -76 -6 -78 -10z"/>
<path d="M30765 46051 c-3 -2 -17 -6 -32 -7 -14 -2 -29 -8 -33 -14 -4 -6 -13
-12 -21 -14 -30 -5 -60 -28 -55 -42 3 -8 0 -13 -7 -11 -7 1 -12 -5 -12 -13 0
-8 -4 -18 -9 -22 -10 -7 -12 -85 -3 -128 2 -14 5 -29 6 -33 0 -5 6 -5 13 -1 7
4 8 3 4 -5 -10 -16 33 -74 51 -67 8 3 11 2 8 -4 -8 -13 40 -42 70 -42 14 0 22
-4 20 -8 -9 -14 137 -33 208 -27 67 6 143 33 180 66 22 19 45 57 28 47 -7 -5
-9 -1 -5 8 3 9 9 14 13 11 5 -2 9 24 10 60 2 65 -18 135 -39 135 -6 0 -9 4 -6
9 9 13 -52 61 -85 68 -16 3 -29 10 -29 15 0 5 -10 6 -21 3 -16 -5 -19 -4 -14
6 6 9 2 11 -13 7 -12 -4 -24 -2 -28 3 -5 9 -190 9 -199 0z m-105 -56 c-7 -8
-17 -15 -23 -15 -6 0 -2 7 9 15 25 19 30 19 14 0z"/>
<path d="M25193 46033 c3 -4 -9 -9 -25 -10 -43 -3 -79 -29 -71 -51 3 -9 3 -14
-2 -10 -11 10 -35 -38 -38 -76 -1 -17 -5 -33 -9 -36 -3 -3 -8 -66 -10 -141 -1
-75 -6 -135 -10 -132 -4 2 -6 -10 -4 -26 2 -17 0 -31 -5 -31 -7 0 -24 -41 -20
-48 1 -1 -5 -10 -14 -18 -8 -9 -12 -20 -9 -26 4 -6 3 -8 -3 -5 -5 4 -20 -5
-31 -18 -12 -14 -29 -25 -38 -25 -8 0 -13 -4 -10 -9 4 -5 -3 -7 -14 -4 -11 3
-20 0 -20 -6 0 -5 -7 -8 -15 -5 -8 4 -21 1 -29 -5 -7 -6 -15 -8 -18 -6 -3 3
-27 1 -54 -6 -27 -6 -67 -13 -89 -16 -22 -2 -42 -7 -45 -11 -3 -4 -14 -8 -25
-9 -94 -8 -151 -26 -140 -43 3 -5 0 -12 -6 -16 -8 -4 -9 -3 -5 4 4 7 3 12 -2
12 -12 0 -36 -75 -28 -89 4 -6 2 -11 -5 -11 -7 0 -9 -10 -5 -27 3 -16 8 -38
10 -50 4 -30 26 -55 42 -49 7 3 14 0 17 -7 2 -7 28 -11 68 -10 148 1 200 4
195 11 -2 4 36 6 86 4 71 -2 88 0 82 10 -6 10 -5 11 8 1 8 -7 17 -11 20 -8 6
6 11 -125 8 -210 -7 -226 -12 -357 -17 -475 -10 -208 -14 -728 -8 -798 4 -34
11 -60 15 -57 5 3 7 -4 5 -15 -4 -21 23 -92 38 -98 4 -2 7 -9 7 -16 0 -20 37
-49 51 -40 7 4 10 3 5 -4 -10 -16 51 -31 117 -27 47 2 64 7 84 27 14 14 26 37
26 51 1 14 6 23 11 19 5 -3 7 2 3 10 -3 9 0 21 6 27 16 16 17 215 5 521 -10
218 -6 375 19 920 5 110 15 184 27 200 9 12 42 15 171 17 481 5 522 7 544 27
12 11 19 26 16 33 -3 9 0 11 7 7 8 -5 9 -2 5 9 -3 10 -2 17 3 17 6 0 10 13 10
30 0 39 -22 120 -33 120 -4 0 -6 4 -3 9 4 5 -8 21 -24 35 l-31 25 -324 -2
c-179 -1 -325 1 -325 5 0 4 6 5 13 3 9 -4 12 17 13 82 0 49 2 162 5 253 3 121
0 175 -9 203 -8 20 -18 37 -23 37 -5 0 -8 3 -6 8 1 4 -2 8 -6 9 -5 1 -14 9
-21 18 -12 17 -123 35 -113 18z"/>
<path d="M31930 46023 c-8 -3 -21 -13 -28 -22 -10 -12 -12 -13 -6 -1 7 12 4
12 -16 -2 -14 -9 -24 -21 -23 -26 1 -5 -10 -20 -25 -33 l-27 -24 24 28 c14 15
20 27 14 27 -16 0 -45 -49 -37 -62 4 -7 3 -8 -4 -4 -11 7 -38 -31 -28 -41 3
-3 -1 -12 -9 -19 -12 -12 -42 -122 -50 -181 -2 -12 -6 -27 -10 -34 -13 -20
-44 -172 -38 -183 3 -5 1 -6 -4 -3 -12 8 -27 -69 -17 -85 5 -7 2 -8 -5 -3 -9
5 -12 1 -11 -11 1 -11 1 -21 0 -24 -11 -30 -59 -255 -55 -259 3 -2 0 -10 -5
-17 -6 -6 -12 -33 -13 -58 -1 -25 -5 -46 -8 -46 -3 0 -6 -6 -6 -12 -1 -7 -8
-44 -16 -83 -9 -38 -13 -73 -10 -78 2 -4 -1 -14 -7 -22 -7 -8 -10 -24 -7 -35
3 -11 1 -20 -3 -20 -5 0 -9 -8 -9 -17 0 -10 -5 -40 -11 -68 -5 -27 -8 -55 -5
-62 2 -7 1 -13 -4 -13 -9 0 -36 -146 -36 -197 0 -17 -4 -29 -9 -26 -5 3 -7 -8
-4 -25 2 -17 1 -33 -4 -34 -4 -2 -9 -27 -10 -55 -2 -29 -6 -53 -10 -53 -4 0
-7 -8 -7 -17 -1 -35 -9 -98 -14 -113 -13 -36 -59 -381 -56 -413 1 -12 -2 -30
-6 -40 -4 -10 -5 -36 -2 -57 3 -22 1 -38 -3 -35 -12 7 -24 -195 -17 -284 3
-42 11 -77 16 -79 6 -2 9 -8 5 -13 -3 -5 0 -9 6 -9 6 0 8 -5 5 -10 -3 -6 1
-17 9 -26 9 -9 14 -19 11 -23 -8 -14 43 -54 60 -47 9 3 14 2 10 -3 -7 -13 50
-24 77 -15 58 17 130 106 112 136 -4 7 -3 8 4 4 8 -5 13 1 14 16 2 31 4 40 13
61 4 9 5 33 3 52 -2 19 0 35 5 35 4 0 8 21 7 48 0 26 11 148 25 272 13 124 23
233 21 243 -2 9 -1 17 4 17 4 0 8 17 9 38 4 92 6 117 13 122 4 3 8 35 10 70 2
36 6 67 10 70 3 3 9 32 12 65 4 33 9 74 12 90 3 17 7 46 9 65 1 19 6 43 10 53
4 9 4 29 1 43 -4 14 -3 23 2 20 10 -6 33 132 27 163 -2 11 1 21 7 21 6 0 8 11
6 25 -3 14 -1 25 4 25 6 0 8 16 6 35 -2 19 0 36 4 37 5 2 10 23 12 48 2 25 6
52 9 60 4 8 18 74 33 145 14 72 35 163 45 204 10 40 17 77 14 81 -3 5 -1 10 4
12 5 1 12 19 14 38 3 19 6 35 7 35 3 0 12 40 14 62 0 11 5 19 9 16 5 -3 7 1 6
8 -1 8 3 27 9 42 7 16 10 33 6 38 -3 5 0 9 7 9 7 0 10 3 6 6 -3 4 0 22 8 40 8
19 11 34 8 34 -3 0 0 7 7 15 6 8 9 19 5 25 -3 5 -1 10 5 10 7 0 9 8 5 21 -5
16 -4 19 6 14 9 -6 11 -2 7 13 -4 14 -2 20 5 15 6 -4 8 0 4 10 -3 9 -2 19 3
22 6 4 10 21 10 39 0 49 -11 96 -21 90 -5 -3 -6 1 -3 9 3 8 -7 27 -21 43 -15
16 -24 22 -20 14 4 -8 0 -7 -9 4 -15 19 -78 30 -106 19z"/>
<path d="M22310 45973 c0 -5 -16 -8 -35 -9 -20 0 -41 -6 -48 -14 -10 -10 -9
-11 3 -5 9 5 12 4 7 -1 -5 -5 -16 -9 -24 -9 -20 0 -50 -57 -58 -110 -4 -22
-11 -119 -16 -215 -11 -210 -11 -210 -23 -203 -5 4 -7 -3 -4 -15 4 -12 2 -20
-3 -16 -8 5 -13 -10 -10 -29 1 -5 -2 -6 -7 -3 -5 3 -21 -7 -35 -23 -17 -19
-43 -33 -78 -41 -30 -7 -58 -15 -64 -18 -5 -3 -23 -7 -39 -9 -17 -2 -34 -7
-39 -12 -5 -5 -16 -7 -23 -4 -8 3 -14 0 -14 -6 0 -6 -6 -8 -14 -5 -8 3 -17 1
-20 -4 -3 -6 -16 -8 -28 -4 -16 4 -19 2 -13 -8 5 -8 4 -11 -3 -6 -19 11 -139
-24 -159 -47 -13 -16 -14 -19 -3 -12 9 6 8 2 -3 -7 -20 -19 -34 -123 -17 -133
5 -3 6 -13 3 -22 -4 -11 -3 -14 5 -9 7 4 10 2 6 -7 -6 -18 21 -41 37 -31 8 5
9 3 4 -6 -6 -10 -1 -12 26 -7 25 5 30 4 19 -3 -11 -8 -2 -9 30 -4 25 4 63 8
85 9 22 2 56 5 75 7 19 3 71 8 115 12 44 4 92 9 108 11 15 2 25 0 23 -3 -2 -4
0 -101 5 -217 5 -115 10 -325 12 -465 5 -431 21 -776 36 -794 6 -7 8 -15 5
-18 -11 -11 25 -108 57 -154 30 -45 89 -81 109 -69 6 4 10 1 10 -4 0 -17 65
-13 113 8 37 16 48 27 62 65 10 25 15 55 12 66 -3 11 -1 18 4 14 5 -3 9 40 9
100 0 62 -4 107 -10 111 -6 4 -8 15 -5 25 3 9 -4 117 -15 240 -11 122 -20 255
-20 296 0 41 -3 74 -7 74 -5 0 -8 173 -8 385 0 212 4 385 8 385 5 0 6 4 3 8
-3 5 0 9 7 10 7 0 30 3 52 6 22 3 168 14 325 26 157 11 295 23 308 26 39 8 63
60 58 129 -4 65 -13 95 -28 95 -5 0 -7 4 -4 8 7 11 -37 50 -68 62 -13 5 -94 5
-187 0 -90 -5 -226 -12 -301 -16 l-137 -6 -3 244 c-2 176 -6 249 -15 260 -7 8
-10 17 -8 20 9 9 -14 60 -24 54 -5 -3 -15 2 -22 12 -13 15 -12 16 4 3 9 -7 17
-9 17 -3 0 14 -57 35 -75 28 -8 -3 -15 -1 -15 4 0 6 -7 10 -15 10 -8 0 -15 -3
-15 -7z"/>
<path d="M27872 45944 c-15 -14 -20 -22 -12 -18 12 6 12 3 -2 -12 -9 -10 -18
-37 -19 -59 -5 -48 19 -137 34 -128 6 3 7 1 3 -6 -9 -14 12 -81 24 -81 5 0 7
-7 4 -15 -3 -8 -2 -20 2 -27 5 -7 9 -15 9 -18 3 -21 19 -79 28 -100 5 -14 11
-34 12 -45 1 -11 14 -65 29 -120 33 -121 32 -113 51 -200 9 -38 19 -77 22 -85
3 -8 7 -24 9 -35 1 -11 10 -49 19 -85 9 -36 17 -72 18 -80 11 -72 32 -148 40
-143 6 4 8 0 4 -10 -7 -18 13 -127 24 -127 3 0 4 -11 1 -25 -2 -14 0 -25 4
-25 5 0 10 -16 11 -36 1 -19 7 -41 13 -48 5 -8 8 -21 4 -30 -3 -9 -2 -16 4
-16 6 0 8 -9 5 -20 -3 -11 -1 -20 5 -20 6 0 9 -8 8 -17 -2 -10 1 -31 6 -48 5
-16 11 -41 14 -55 3 -14 8 -34 11 -45 4 -11 8 -23 9 -27 1 -5 2 -9 4 -10 1 -2
3 -12 5 -23 2 -11 6 -31 9 -45 3 -14 9 -40 12 -58 3 -18 10 -35 15 -38 5 -3 7
-9 4 -13 -9 -15 36 -141 47 -134 6 3 8 1 5 -4 -10 -17 4 -74 16 -66 6 4 8 0 4
-9 -3 -9 0 -21 6 -27 6 -6 8 -11 4 -11 -4 0 3 -18 14 -40 12 -22 25 -40 31
-40 5 0 6 -5 2 -11 -3 -6 0 -15 7 -20 8 -4 14 -12 14 -16 1 -19 27 -53 36 -48
5 4 8 1 7 -7 -2 -7 3 -12 10 -10 6 1 11 -4 10 -10 -2 -7 3 -12 10 -10 8 1 11
-2 7 -7 -7 -13 25 -30 44 -23 8 3 11 0 7 -7 -4 -6 -1 -12 6 -13 23 -2 32 -5
50 -12 17 -8 118 -3 148 6 8 3 27 8 42 13 16 4 25 12 21 18 -3 6 -1 7 5 3 15
-9 54 12 47 25 -4 5 -1 8 7 7 7 -2 12 2 11 8 -1 7 5 11 15 10 9 0 16 5 14 12
-1 6 2 11 6 10 12 -4 82 64 82 80 0 7 4 11 9 8 13 -9 74 71 65 85 -4 7 -3 9 4
5 12 -7 44 33 36 46 -3 5 0 7 7 6 6 -2 14 3 17 11 3 9 0 11 -8 6 -9 -5 -11 -4
-6 4 4 6 12 9 17 5 6 -3 13 3 16 15 3 12 9 21 13 21 10 0 41 47 45 70 2 10 13
28 25 40 34 34 80 112 73 124 -3 6 -3 8 2 4 11 -10 47 50 39 64 -4 7 -2 8 4 4
7 -4 12 -1 12 8 0 9 4 16 8 16 10 0 37 50 34 63 -1 4 2 7 7 7 8 0 27 40 22 48
0 1 8 11 19 22 12 12 18 25 15 29 -2 5 2 12 11 15 8 3 12 11 9 17 -4 6 3 20
15 31 12 11 19 27 16 35 -3 8 -2 12 3 9 5 -3 12 1 15 10 4 10 2 13 -7 9 -6 -4
-4 0 7 9 10 8 15 20 10 27 -4 7 -3 10 3 6 13 -8 46 50 37 65 -4 7 -3 8 4 4 11
-7 14 -3 16 27 1 6 9 20 19 30 10 10 15 22 12 27 -4 6 -1 10 5 10 6 0 8 5 5
10 -3 6 -1 10 5 10 6 0 8 5 5 10 -3 6 -2 10 3 10 13 0 33 50 26 62 -5 7 -2 8
6 3 10 -6 12 -4 7 9 -4 10 -3 15 3 11 5 -3 12 7 16 22 4 15 11 33 16 40 5 7 6
18 2 24 -4 8 -3 9 4 5 11 -6 16 6 13 27 0 4 4 7 11 7 6 0 9 3 5 6 -3 3 3 22
14 41 11 19 15 32 9 28 -6 -3 -7 0 -4 9 3 9 10 13 15 10 8 -5 13 12 12 43 -1
7 4 10 10 6 6 -4 8 0 4 10 -3 10 -3 17 2 17 13 0 34 57 25 71 -4 7 -3 10 3 6
12 -7 36 50 28 63 -3 5 0 10 6 12 6 2 12 16 12 31 1 15 6 27 11 27 4 0 6 7 2
15 -3 8 -2 15 3 15 10 0 52 149 46 161 -3 4 -1 9 4 11 12 4 32 175 30 248 -2
58 -26 133 -39 125 -5 -3 -10 0 -12 6 -2 6 -16 13 -30 14 -15 2 -31 6 -37 9
-5 4 -12 2 -16 -3 -3 -6 -12 -8 -20 -4 -8 3 -15 0 -15 -6 0 -6 -7 -8 -15 -5
-8 4 -17 -1 -21 -10 -3 -9 -10 -14 -14 -11 -13 8 -62 -56 -56 -72 3 -8 1 -11
-4 -8 -12 7 -24 -40 -14 -56 5 -8 3 -9 -6 -4 -10 6 -12 4 -7 -8 3 -9 2 -17 -3
-19 -5 -2 -10 -16 -12 -33 -2 -16 -7 -33 -11 -36 -4 -3 -9 -19 -10 -35 -1 -16
-6 -32 -11 -36 -5 -3 -10 -14 -11 -25 -1 -10 -7 -28 -13 -40 -7 -13 -10 -23
-6 -23 3 0 1 -7 -6 -15 -6 -8 -9 -19 -6 -24 4 -5 2 -12 -4 -16 -6 -4 -8 -11
-5 -16 4 -5 1 -9 -6 -9 -7 0 -10 -3 -7 -6 4 -3 -5 -30 -18 -60 -13 -31 -22
-60 -19 -65 4 -5 1 -9 -5 -9 -7 0 -10 -7 -6 -15 3 -8 1 -15 -5 -15 -6 0 -7 -4
-4 -10 3 -5 1 -10 -4 -10 -6 0 -11 -8 -11 -18 0 -10 -3 -22 -7 -26 -5 -4 -8
-11 -8 -14 -1 -4 -11 -29 -23 -56 -13 -28 -20 -56 -17 -63 2 -8 1 -11 -4 -8
-12 7 -25 -31 -16 -45 3 -6 -1 -13 -10 -16 -9 -4 -14 -13 -11 -20 3 -8 1 -14
-4 -14 -6 0 -10 -9 -10 -20 0 -11 -4 -20 -9 -20 -11 0 -46 -91 -42 -110 2 -8
-1 -12 -5 -7 -10 10 -36 -52 -27 -66 4 -6 1 -7 -7 -2 -10 6 -12 4 -7 -9 4 -9
3 -14 -2 -11 -9 5 -22 -20 -20 -39 0 -5 -4 -12 -11 -16 -6 -4 -12 -14 -14 -22
-1 -9 -8 -23 -15 -32 -7 -9 -10 -16 -7 -16 4 0 0 -7 -8 -16 -9 -8 -14 -20 -11
-25 4 -5 1 -9 -5 -9 -7 0 -9 -7 -6 -16 4 -10 2 -13 -6 -8 -8 5 -9 2 -5 -10 4
-9 3 -15 -1 -12 -5 3 -23 -20 -40 -50 -17 -30 -27 -52 -22 -49 6 3 7 -1 4 -9
-3 -9 -10 -13 -15 -10 -5 3 -9 0 -9 -6 0 -6 -12 -27 -26 -45 -14 -19 -27 -41
-28 -50 -1 -9 -9 -21 -17 -26 -8 -5 -10 -9 -6 -9 4 0 -8 -17 -28 -37 -26 -27
-32 -39 -23 -45 10 -6 8 -8 -4 -8 -10 0 -18 -7 -18 -16 0 -8 -4 -12 -10 -9 -9
5 -11 0 -9 -21 0 -4 -10 -12 -23 -19 -13 -6 -22 -17 -20 -24 1 -7 -2 -10 -7
-7 -5 3 -21 -8 -35 -25 -14 -17 -26 -27 -26 -22 0 4 -7 -1 -15 -11 -8 -11 -15
-17 -15 -14 0 3 -15 3 -33 -2 -23 -5 -40 -3 -52 6 -10 7 -21 11 -26 9 -4 -3
-14 4 -22 15 -7 11 -17 17 -22 12 -5 -4 -5 -1 0 7 5 9 2 19 -10 28 -11 7 -16
13 -13 13 4 0 -5 33 -18 73 -24 69 -81 260 -88 295 -5 29 -17 76 -23 92 -6 16
-8 30 -11 68 -1 13 -6 20 -12 17 -5 -3 -7 0 -4 8 3 8 -11 80 -30 160 -20 81
-36 154 -36 162 0 8 -5 15 -11 15 -6 0 -8 9 -4 20 4 11 2 20 -4 20 -6 0 -8 7
-5 15 4 8 1 21 -5 29 -6 7 -9 15 -6 17 2 3 -7 52 -21 109 -14 58 -26 111 -26
118 -1 6 -5 12 -10 12 -5 0 -7 4 -4 9 6 10 -14 112 -23 121 -6 5 -7 10 -9 56
-1 14 -6 22 -12 19 -5 -3 -7 0 -4 8 2 7 -7 60 -21 118 -30 124 -33 134 -35
134 -1 0 -3 9 -5 20 -10 58 -18 85 -42 133 -15 29 -36 58 -47 64 l-21 11 20
-25 c12 -14 9 -12 -8 4 -15 16 -32 26 -37 23 -6 -3 -10 -1 -10 5 0 8 -9 10
-26 6 -14 -4 -23 -3 -20 2 3 4 -33 9 -80 10 -77 1 -86 -1 -112 -24z"/>
<path d="M32940 45875 c-7 -8 -18 -15 -24 -14 -26 3 -37 -3 -71 -38 -34 -35
-47 -62 -23 -47 7 4 8 3 4 -5 -4 -6 -11 -9 -16 -6 -5 3 -14 -4 -20 -16 -10
-17 -9 -20 2 -14 7 5 3 -3 -10 -17 -12 -14 -24 -39 -25 -56 -1 -18 -6 -32 -10
-32 -4 0 -7 -6 -6 -12 1 -7 -4 -26 -11 -43 -7 -16 -13 -44 -14 -62 0 -17 -4
-29 -8 -26 -5 2 -9 -2 -9 -9 -3 -32 -9 -59 -33 -148 -26 -96 -37 -143 -40
-170 0 -8 -4 -18 -9 -21 -4 -3 -8 -24 -10 -47 -1 -23 -6 -42 -11 -42 -4 0 -6
-11 -4 -25 3 -13 2 -23 -2 -20 -9 6 -32 -113 -24 -127 4 -7 3 -8 -4 -4 -11 7
-15 -10 -15 -66 0 -10 -4 -18 -9 -18 -6 0 -8 -9 -5 -20 3 -11 1 -20 -5 -20 -6
0 -8 -11 -6 -25 3 -14 1 -25 -5 -25 -5 0 -7 -11 -5 -25 3 -14 2 -25 -2 -25 -6
0 -32 -110 -46 -195 -2 -11 -8 -37 -13 -59 -5 -21 -8 -47 -6 -57 2 -11 -1 -19
-7 -19 -6 0 -8 -13 -6 -30 3 -16 2 -27 -1 -25 -7 8 -52 -227 -47 -242 3 -6 1
-13 -4 -15 -5 -2 -11 -25 -14 -53 -2 -27 -7 -58 -11 -68 -4 -10 -8 -38 -9 -62
0 -23 -4 -41 -7 -39 -8 5 -29 -149 -24 -175 2 -12 0 -19 -5 -16 -5 3 -9 -3 -8
-12 0 -10 -4 -43 -8 -73 -5 -30 -9 -78 -9 -107 0 -28 -4 -49 -9 -46 -5 4 -7
-12 -4 -35 4 -24 2 -42 -4 -44 -16 -6 -16 -271 -1 -290 7 -8 10 -18 6 -21 -3
-4 -1 -13 5 -20 7 -8 9 -17 5 -20 -3 -4 -1 -7 6 -7 7 0 10 -4 7 -9 -8 -13 43
-73 55 -65 6 3 16 0 24 -6 8 -7 15 -9 15 -4 0 5 4 3 9 -5 12 -19 73 -6 108 23
15 13 36 41 47 63 10 21 22 46 27 55 12 24 51 328 45 351 -2 11 -1 27 4 36 12
21 43 288 36 300 -4 5 -2 11 4 13 8 3 17 67 23 175 1 18 5 33 8 33 6 0 10 33
13 98 0 17 5 32 9 32 5 0 8 10 7 23 -1 12 -1 24 0 27 3 8 9 42 14 75 3 17 12
68 21 114 9 46 14 90 11 97 -3 8 -1 14 4 14 6 0 8 13 5 30 -3 19 -1 30 6 30 7
0 9 10 7 25 -3 14 -1 25 5 25 5 0 7 11 5 25 -3 14 -2 25 3 25 4 0 7 15 5 34
-1 21 2 32 7 29 6 -4 8 3 5 15 -4 12 -3 22 1 22 7 0 13 34 15 83 1 15 5 27 10
27 4 0 6 13 4 29 -2 17 -1 28 4 25 7 -5 9 7 12 64 1 9 5 20 9 23 5 4 10 24 10
47 1 22 6 38 11 35 5 -3 7 8 4 25 -2 17 -1 29 3 27 6 -4 20 43 26 90 6 51 9
61 21 73 6 7 12 24 12 38 0 35 1 38 12 51 6 7 8 20 4 28 -3 8 -2 15 2 15 11 0
43 101 36 112 -3 4 0 8 7 8 6 0 9 8 6 20 -3 12 -1 18 5 14 7 -5 9 2 6 19 -3
15 -2 24 2 22 7 -4 23 34 25 60 0 6 4 16 8 23 5 6 5 17 1 24 -5 7 -3 8 6 3 10
-6 12 -4 7 8 -4 10 -2 17 4 17 7 0 9 11 7 25 -3 13 -1 22 3 19 5 -3 9 18 9 46
0 31 -4 49 -10 45 -5 -3 -7 0 -4 9 12 32 -52 114 -81 102 -9 -3 -13 -2 -10 4
10 16 -61 11 -75 -5z"/>
<path d="M18125 45668 c-60 -5 -111 -12 -113 -16 -1 -4 -19 -7 -39 -6 -21 1
-42 0 -46 -3 -5 -3 -34 -7 -65 -9 -31 -2 -58 -9 -60 -14 -2 -5 -15 -7 -28 -4
-15 4 -24 2 -24 -6 0 -6 -5 -8 -10 -5 -12 8 -150 -16 -150 -26 0 -3 -11 -4
-25 -1 -14 2 -25 0 -25 -4 0 -5 -10 -10 -22 -11 -13 0 -34 -3 -48 -6 -87 -16
-106 -20 -115 -26 -11 -6 -17 -7 -53 -9 -13 -1 -21 -6 -18 -11 4 -5 -3 -7 -14
-4 -11 3 -20 1 -20 -5 0 -5 -6 -10 -12 -9 -33 1 -49 -4 -43 -13 3 -5 0 -7 -9
-4 -8 3 -21 2 -28 -2 -14 -9 -19 -11 -44 -13 -9 0 -12 -6 -8 -13 4 -7 3 -8 -4
-4 -14 8 -73 -24 -66 -36 3 -4 -1 -5 -8 -3 -18 7 -62 -40 -53 -55 4 -6 1 -9
-7 -8 -7 2 -12 -3 -11 -9 2 -7 -1 -13 -6 -13 -13 0 -13 -100 0 -140 27 -84
104 -117 249 -107 64 4 82 2 87 -9 3 -8 8 -12 12 -10 4 3 7 -14 7 -37 0 -108
4 -158 14 -152 7 4 9 -2 5 -17 -3 -12 -1 -84 4 -158 6 -74 13 -218 16 -320 3
-101 7 -196 9 -210 7 -45 20 -205 17 -219 -1 -7 1 -11 6 -8 5 3 7 -12 5 -34
-2 -21 -1 -47 3 -57 4 -9 7 -32 6 -51 -2 -18 1 -31 6 -28 4 3 9 -27 10 -66 2
-40 6 -79 9 -87 3 -8 8 -46 10 -84 2 -37 7 -72 10 -78 3 -5 8 -35 10 -67 2
-32 11 -93 19 -137 9 -43 16 -87 16 -97 0 -10 5 -15 11 -11 8 5 9 1 5 -11 -7
-16 10 -82 23 -95 3 -3 6 -14 8 -25 2 -11 12 -32 23 -47 10 -15 19 -31 19 -36
0 -17 68 -74 81 -67 8 6 10 4 4 -5 -6 -10 -4 -12 8 -7 10 3 17 2 17 -4 0 -6
22 -9 53 -8 96 4 127 48 127 182 0 84 -20 259 -31 271 -4 5 -5 22 -2 39 4 21
3 28 -5 23 -7 -4 -10 1 -7 14 3 17 -13 125 -30 200 -1 8 -6 43 -10 78 -4 34
-10 62 -14 62 -3 0 -6 17 -6 38 -1 20 -3 55 -5 77 l-5 40 53 3 c29 2 51 6 48
10 -2 4 18 5 46 3 27 -1 55 2 60 7 6 6 24 8 39 5 16 -3 29 -2 29 3 0 5 23 10
51 11 29 0 54 6 58 11 3 6 13 10 21 9 21 -2 120 24 120 31 0 4 12 8 26 9 15 0
30 7 34 13 4 7 13 9 19 6 6 -4 11 -2 11 3 0 6 3 10 8 9 4 -1 21 5 37 12 33 15
40 17 56 19 5 0 7 6 3 13 -5 7 -3 8 5 4 7 -5 19 0 27 10 9 11 12 13 9 6 -6
-11 -3 -12 14 -3 11 7 21 16 21 22 0 6 4 8 8 5 12 -7 63 29 55 39 -5 4 -3 5 4
1 15 -8 65 23 57 35 -3 5 -2 9 3 8 18 -3 29 2 55 25 15 12 25 25 22 29 -3 3 3
4 13 4 10 -1 17 4 16 10 -2 7 2 12 9 10 7 -1 12 5 13 13 0 8 7 14 15 13 8 -2
40 23 70 54 30 32 44 49 31 38 l-25 -20 20 27 c10 14 21 24 23 22 6 -5 51 37
51 47 0 4 11 20 25 35 26 28 34 51 13 38 -7 -4 -8 -3 -4 4 4 7 14 12 22 12 8
0 12 5 9 10 -3 6 -1 10 4 10 6 0 11 9 11 21 0 11 5 17 10 14 9 -6 14 8 11 28
0 4 3 7 7 7 9 0 37 64 33 76 -2 4 2 10 8 14 7 3 13 20 14 37 1 17 5 29 10 26
4 -2 8 4 9 14 3 38 5 49 13 66 4 9 5 28 3 42 -3 13 -2 22 2 20 10 -6 12 87 4
162 -4 40 -10 60 -17 56 -6 -3 -7 -1 -3 6 10 15 -3 93 -14 86 -4 -3 -6 3 -3
13 5 19 -29 104 -53 132 -7 8 -13 18 -13 23 -2 27 -60 102 -80 102 -3 0 -5 3
-4 7 2 4 -10 16 -25 27 -15 12 -31 24 -37 29 -80 63 -244 114 -377 116 -27 0
-48 4 -48 8 0 10 -246 8 -385 -4z m210 -333 c66 -4 147 -8 180 -10 33 -2 67
-6 75 -8 67 -19 100 -32 132 -53 21 -13 42 -24 48 -24 5 0 10 -5 10 -11 0 -5
4 -8 9 -4 5 3 13 0 17 -6 4 -8 3 -9 -4 -5 -7 4 -12 2 -12 -4 0 -6 7 -13 15
-16 8 -4 15 -12 15 -20 0 -8 5 -14 10 -14 6 0 9 -3 8 -7 -1 -5 4 -38 11 -74
14 -72 10 -171 -8 -192 -6 -8 -12 -26 -13 -40 -1 -14 -5 -24 -9 -21 -8 5 -25
-35 -21 -49 1 -5 -2 -6 -8 -2 -5 3 -10 -1 -10 -9 0 -9 -5 -16 -11 -16 -6 0 -9
-7 -6 -15 4 -8 1 -17 -5 -21 -7 -5 -8 -2 -3 7 8 12 6 12 -8 0 -20 -16 -23 -36
-4 -25 6 4 9 4 5 0 -3 -4 -10 -8 -15 -7 -11 0 -53 -40 -53 -52 0 -5 7 -4 15 3
26 22 16 4 -12 -21 -20 -18 -24 -19 -13 -4 14 20 14 20 -7 1 -13 -10 -20 -23
-17 -28 3 -4 0 -7 -8 -6 -7 2 -12 -4 -10 -12 2 -8 0 -12 -4 -7 -9 9 -46 -22
-39 -34 3 -4 0 -11 -6 -15 -8 -5 -9 -3 -4 6 5 8 3 11 -6 8 -8 -3 -13 -11 -11
-17 1 -7 -2 -10 -7 -7 -9 6 -26 -11 -26 -26 0 -3 -4 -10 -9 -15 -5 -5 -6 -3
-2 5 4 6 3 12 -2 12 -14 0 -33 -26 -24 -34 4 -4 2 -7 -3 -6 -19 4 -38 0 -32
-7 4 -4 -7 -13 -24 -20 -17 -7 -28 -17 -24 -23 4 -6 -1 -7 -11 -3 -11 4 -15 3
-10 -5 3 -6 1 -14 -5 -18 -8 -4 -9 -3 -5 4 10 17 2 15 -38 -9 -20 -12 -36 -25
-36 -31 0 -5 -4 -7 -9 -3 -5 3 -16 -1 -24 -9 -8 -8 -17 -13 -20 -10 -3 4 -12
2 -19 -2 -16 -10 -31 -14 -90 -21 -26 -3 -46 -9 -43 -13 2 -4 -12 -5 -32 -3
-20 2 -43 1 -52 -3 -9 -4 -31 -6 -50 -5 -18 2 -31 -1 -28 -6 3 -4 -28 -9 -69
-10 -40 -1 -81 -6 -89 -11 -25 -13 -75 -2 -75 17 0 13 -2 13 -9 2 -6 -9 -8 7
-5 41 2 31 -1 118 -6 194 -5 77 -11 189 -14 249 -3 61 -6 121 -7 135 -4 73 5
369 11 365 4 -2 16 4 27 15 12 10 24 16 27 13 3 -4 6 -1 6 6 0 7 5 9 10 6 6
-4 19 -4 28 0 20 9 60 17 85 16 9 0 15 4 12 9 -4 6 6 7 23 4 17 -4 32 -1 36 5
4 6 12 9 17 6 5 -3 46 -1 91 5 46 7 102 12 126 12 23 0 42 4 42 9 0 6 3 8 8 5
4 -2 61 -7 127 -11z m515 -1039 c0 -2 -8 -10 -17 -17 -16 -13 -17 -12 -4 4 13
16 21 21 21 13z m-1235 -1406 c10 -11 16 -20 13 -20 -3 0 -13 9 -23 20 -10 11
-16 20 -13 20 3 0 13 -9 23 -20z"/>
<path d="M20535 45291 c-22 -5 -58 -12 -80 -16 -22 -4 -44 -10 -50 -13 -5 -3
-18 -7 -30 -8 -42 -5 -135 -46 -128 -56 4 -7 0 -9 -9 -5 -9 3 -19 3 -23 -1 -4
-4 -10 -7 -13 -7 -15 -1 -71 -39 -67 -46 3 -4 -2 -10 -11 -13 -9 -4 -13 -2 -8
5 4 8 0 7 -15 0 -11 -7 -21 -16 -21 -22 0 -6 -4 -8 -9 -5 -5 3 -15 -2 -22 -11
-12 -14 -12 -16 0 -8 9 5 12 4 7 -3 -4 -6 -14 -8 -23 -5 -12 5 -15 2 -10 -10
4 -10 2 -14 -7 -11 -13 5 -42 -23 -61 -59 -6 -13 -18 -21 -29 -19 -12 2 -16
-2 -14 -15 2 -10 -3 -18 -12 -18 -8 -1 -14 -7 -12 -14 1 -7 -2 -10 -7 -6 -9 5
-37 -33 -33 -45 1 -3 -2 -5 -8 -5 -13 0 -41 -41 -33 -49 3 -3 1 -6 -5 -6 -11
0 -58 -70 -54 -82 1 -5 -3 -8 -9 -8 -6 0 -8 -7 -5 -16 3 -8 2 -13 -3 -10 -10
6 -46 -70 -44 -92 0 -7 -2 -11 -5 -8 -9 9 -33 -54 -25 -67 3 -5 2 -7 -4 -4
-11 7 -79 -220 -69 -230 3 -4 1 -12 -4 -18 -24 -29 -33 -422 -11 -449 6 -7 8
-15 5 -19 -7 -7 10 -91 27 -132 7 -17 12 -33 11 -37 -1 -5 3 -8 9 -8 5 0 8 -4
5 -9 -9 -13 4 -42 15 -35 5 3 8 2 7 -3 -4 -13 31 -93 41 -93 5 0 11 -9 14 -21
3 -12 10 -18 16 -14 7 3 8 0 5 -9 -3 -9 -1 -16 5 -16 6 0 16 -12 21 -26 7 -17
15 -24 25 -20 8 3 17 0 21 -6 4 -7 3 -8 -4 -4 -16 10 -15 -9 1 -22 12 -10 17
-12 38 -12 5 0 8 -4 4 -9 -5 -9 75 -69 98 -74 6 -1 18 -10 28 -19 10 -10 25
-15 34 -12 8 4 15 2 15 -4 0 -10 69 -41 103 -46 9 -1 19 -5 23 -8 3 -4 12 -4
20 -1 8 3 14 1 14 -5 0 -6 9 -8 20 -5 12 3 20 0 20 -7 0 -8 9 -11 25 -8 14 3
25 1 25 -5 0 -5 11 -7 25 -5 14 3 28 1 31 -4 3 -5 20 -9 37 -9 18 0 84 -3 147
-6 122 -5 387 13 406 28 6 5 19 7 28 3 9 -3 16 -1 16 5 0 6 7 8 15 5 8 -3 20
-2 27 2 7 4 23 9 36 10 31 4 88 38 84 53 -1 6 1 10 5 9 5 -2 9 1 10 6 1 5 7
12 14 17 14 8 21 89 8 89 -5 0 -6 7 -3 15 9 23 -23 65 -64 82 -43 18 -158 14
-277 -11 -11 -2 -49 -7 -85 -11 -36 -4 -69 -10 -73 -12 -15 -9 -145 -8 -140 1
3 4 -15 7 -41 5 -25 -2 -46 -1 -46 2 0 7 -80 22 -91 17 -3 -2 -13 3 -21 10 -9
7 -24 9 -33 5 -14 -5 -16 -3 -10 7 6 10 3 12 -13 8 -12 -4 -20 -3 -17 2 5 8
-51 36 -57 29 -2 -2 -14 6 -28 19 -13 12 -31 20 -39 17 -9 -3 -12 -3 -8 1 8 8
-41 64 -56 64 -6 0 -2 -10 9 -22 l19 -23 -23 19 c-12 11 -20 21 -17 24 2 3 -3
11 -13 19 -10 9 -11 12 -2 7 8 -4 2 8 -15 27 -16 19 -33 35 -38 37 -4 2 -5 8
-1 13 3 5 0 9 -6 9 -6 0 -8 5 -5 10 3 6 2 10 -2 10 -8 0 -14 27 -17 79 -1 20
4 24 27 25 15 1 27 -1 27 -5 0 -6 8 -8 55 -12 17 -1 33 -6 37 -11 3 -5 82 -11
175 -13 171 -4 353 16 353 39 0 5 4 7 9 4 14 -9 154 53 174 77 10 12 15 16 11
8 -5 -10 2 -9 24 4 17 10 29 22 27 26 -3 4 3 6 13 5 9 0 16 5 15 12 -2 6 4 12
11 12 16 0 73 49 68 57 -2 2 0 8 4 11 4 4 4 1 0 -5 -13 -23 10 -13 38 16 16
16 25 34 22 40 -4 7 -1 9 8 5 9 -3 17 2 21 15 3 12 15 26 26 31 10 6 19 15 19
21 0 6 -6 7 -12 3 -8 -4 -10 -3 -5 2 5 5 14 9 20 9 7 0 11 8 11 18 -1 9 2 15
6 12 9 -6 53 61 53 81 0 7 7 16 14 18 8 3 12 10 8 16 -3 5 6 26 19 47 14 21
27 49 28 63 2 14 6 27 10 30 4 3 9 21 10 40 2 19 7 38 13 42 14 10 17 291 3
282 -8 -5 -9 -1 -5 10 8 19 -20 126 -32 126 -4 0 -7 9 -8 21 -2 22 -37 74 -86
127 -29 30 -56 44 -42 22 10 -16 -1 -11 -16 7 -12 14 -12 16 1 9 8 -4 2 4 -15
18 -16 14 -36 24 -42 21 -7 -2 -12 0 -10 4 1 5 -2 9 -6 10 -4 0 -15 7 -23 16
-9 8 -20 12 -26 9 -6 -4 -14 -1 -18 6 -4 6 -38 21 -76 32 -76 22 -271 33 -339
19z m606 -178 c13 -16 12 -17 -3 -4 -10 7 -18 15 -18 17 0 8 8 3 21 -13z
m-421 -108 c6 -4 17 -4 25 -1 8 3 15 1 15 -5 0 -6 6 -9 12 -7 7 3 19 -2 27 -9
7 -8 21 -11 29 -8 9 3 13 3 10 -1 -4 -3 14 -24 40 -47 26 -22 47 -44 47 -49 0
-5 6 -12 13 -17 8 -5 13 -12 13 -17 -1 -19 22 -83 29 -79 3 2 6 -47 6 -110 -1
-66 -5 -111 -10 -107 -5 3 -7 -2 -3 -11 3 -9 1 -17 -4 -19 -6 -2 -12 -15 -12
-30 -1 -14 -5 -24 -8 -22 -10 6 -20 -26 -12 -38 3 -6 1 -8 -5 -4 -13 8 -43
-33 -35 -48 3 -6 2 -8 -2 -3 -11 9 -46 -23 -39 -35 3 -4 0 -7 -7 -6 -7 2 -18
-7 -24 -20 -7 -12 -16 -26 -20 -30 -5 -4 -5 -1 -1 6 11 19 3 15 -54 -23 -29
-19 -56 -35 -62 -35 -5 0 -6 -4 -3 -10 3 -5 0 -7 -8 -4 -8 3 -21 -1 -28 -8 -8
-7 -18 -13 -24 -13 -23 -1 -75 -17 -75 -23 0 -4 -13 -7 -29 -8 -16 -1 -37 -4
-47 -9 -11 -4 -95 -9 -189 -12 -93 -2 -196 -5 -227 -6 -32 -2 -59 1 -60 5 -2
4 -20 9 -41 11 -21 2 -45 11 -53 19 -16 16 -16 20 10 208 1 9 5 21 10 28 4 6
4 17 1 22 -3 6 -2 10 4 10 9 0 25 34 26 55 0 6 11 25 23 43 13 17 20 37 16 43
-5 8 -3 9 6 4 10 -6 12 -4 7 8 -3 9 -1 19 5 23 7 5 8 2 3 -6 -6 -9 -4 -11 4
-6 7 5 10 14 7 22 -3 8 -2 13 3 11 7 -2 29 22 71 77 13 18 13 19 0 11 -8 -4
-12 -5 -8 0 4 4 18 13 30 20 13 6 22 17 20 23 -1 7 1 11 6 10 11 -4 112 85
112 100 0 6 3 11 8 11 20 -3 32 2 26 13 -4 7 -3 8 4 4 15 -9 55 18 44 29 -4 5
-1 5 7 0 8 -4 17 -2 22 6 4 8 14 14 21 14 7 1 47 12 88 25 41 13 83 23 93 22
9 0 16 2 13 6 -5 9 119 6 134 -3z"/>
<path d="M23858 45222 c-10 -2 -18 -8 -18 -13 0 -5 -3 -8 -7 -7 -35 7 -109
-121 -116 -199 -2 -22 -6 -44 -9 -49 -7 -12 -40 -207 -37 -220 1 -5 -1 -17 -6
-27 -4 -10 -5 -37 -2 -59 3 -23 2 -36 -2 -29 -5 7 -11 -21 -16 -66 -4 -43 -10
-98 -13 -123 -3 -25 -5 -68 -6 -97 -1 -28 -4 -49 -7 -47 -19 11 -25 -409 -8
-551 12 -103 23 -170 29 -170 1 0 3 -13 5 -30 2 -16 9 -31 14 -33 5 -2 8 -9 5
-15 -2 -7 8 -25 22 -42 14 -16 22 -24 18 -16 -5 10 -2 10 17 -1 28 -18 119
-24 119 -9 0 6 7 8 15 5 18 -7 100 39 109 62 3 9 3 21 -1 26 -3 6 -1 8 4 5 12
-7 36 50 28 63 -3 5 -1 11 4 14 11 7 13 121 5 240 -4 55 -10 83 -15 75 -5 -9
-7 -1 -4 21 2 19 7 116 9 215 3 99 8 191 10 203 3 13 8 58 11 100 3 43 15 140
25 217 11 76 17 147 14 157 -3 10 0 18 6 18 7 0 10 12 7 35 -3 19 -1 35 4 37
13 5 24 194 11 202 -6 4 -8 14 -5 23 4 11 3 14 -5 9 -8 -5 -10 -2 -6 8 4 10 1
16 -9 16 -9 0 -19 5 -23 12 -5 7 -2 8 7 3 9 -5 8 -1 -3 10 -9 10 -30 18 -47
19 -17 1 -31 4 -31 9 0 7 -68 7 -102 -1z"/>
<path d="M30695 44930 c-4 -6 -10 -8 -15 -5 -10 6 -70 -42 -70 -57 0 -5 -7
-16 -15 -24 -8 -9 -15 -24 -15 -35 0 -10 -5 -19 -11 -19 -6 0 -8 -7 -5 -16 3
-8 2 -13 -3 -9 -9 5 -27 -51 -23 -69 2 -4 -2 -13 -7 -20 -16 -19 -63 -187 -57
-202 4 -9 2 -12 -5 -8 -8 4 -9 -1 -4 -15 3 -11 2 -21 -3 -21 -5 0 -9 -6 -10
-12 -3 -26 -10 -63 -12 -63 -1 0 -3 -7 -5 -15 -2 -8 -11 -41 -20 -73 -9 -32
-13 -63 -9 -69 4 -6 3 -8 -4 -4 -6 4 -11 -1 -10 -11 0 -10 -10 -56 -22 -103
-12 -47 -24 -94 -26 -105 -2 -11 -8 -38 -13 -61 -12 -47 -23 -145 -25 -221 0
-28 -4 -46 -7 -41 -8 12 -23 -243 -17 -282 2 -14 7 -31 11 -37 5 -7 5 -18 2
-23 -9 -14 5 -71 15 -65 4 3 6 -3 3 -13 -5 -20 34 -75 47 -67 5 3 11 1 15 -5
8 -14 114 -13 156 1 42 14 101 69 94 87 -3 8 0 10 7 6 8 -5 9 -2 5 9 -3 10 -2
17 4 17 6 0 7 5 4 10 -3 6 -1 10 5 10 7 0 10 6 7 14 -3 8 -1 16 5 18 6 2 12
29 13 59 1 29 5 61 8 69 3 8 8 83 11 165 3 89 13 197 26 265 12 63 22 126 23
140 1 14 6 28 10 31 4 3 9 26 10 51 1 25 6 43 11 40 5 -3 7 7 4 21 -3 15 -1
24 4 21 5 -4 9 2 7 12 -1 11 0 26 4 34 7 20 20 71 22 90 1 8 5 23 10 34 4 10
8 31 9 46 1 15 5 25 10 22 5 -3 7 2 3 11 -3 9 -3 17 1 19 12 5 42 135 36 155
-5 15 -4 15 5 3 9 -12 11 -9 12 15 2 37 4 46 13 67 4 9 5 22 1 28 -3 5 -2 10
3 10 14 0 11 80 -4 116 -16 38 -50 64 -88 68 -14 1 -29 6 -33 9 -10 11 -91 8
-98 -3z"/>
<path d="M34158 44635 c-4 -4 -27 -8 -52 -10 -26 -1 -52 -8 -60 -14 -7 -6 -15
-9 -18 -6 -12 13 -220 -74 -211 -88 3 -6 1 -7 -5 -3 -15 9 -55 -18 -44 -29 4
-4 0 -6 -9 -2 -15 5 -89 -36 -89 -49 0 -3 5 -2 12 2 7 4 8 3 4 -5 -4 -6 -12
-9 -17 -5 -13 8 -40 -16 -32 -29 3 -6 1 -7 -6 -3 -15 10 -43 -13 -34 -27 3 -6
1 -7 -5 -3 -15 9 -84 -54 -78 -70 3 -7 0 -16 -6 -20 -7 -4 -8 -3 -4 4 13 21
-8 12 -32 -13 -13 -13 -21 -29 -17 -35 4 -6 1 -9 -7 -8 -7 2 -12 -3 -10 -9 1
-7 -4 -12 -10 -10 -7 1 -12 -4 -11 -10 2 -7 -3 -12 -10 -10 -6 1 -11 -6 -10
-16 0 -10 -2 -16 -5 -13 -7 7 -32 -13 -32 -26 0 -5 5 -6 12 -2 7 4 8 3 4 -5
-4 -6 -11 -9 -15 -6 -13 7 -84 -102 -75 -116 4 -7 3 -9 -4 -5 -6 3 -16 -3 -22
-14 -6 -11 -8 -20 -5 -20 3 0 -3 -9 -14 -21 -11 -12 -17 -28 -14 -38 4 -9 2
-13 -2 -8 -11 10 -58 -91 -49 -105 5 -7 2 -8 -6 -3 -10 6 -12 3 -8 -13 4 -12
2 -20 -2 -17 -8 5 -40 -85 -45 -125 -1 -8 -7 -35 -14 -59 -7 -23 -10 -49 -7
-57 3 -8 1 -14 -5 -14 -6 0 -9 -10 -8 -22 2 -13 0 -29 -5 -36 -11 -19 -21
-216 -11 -239 4 -10 9 -22 10 -28 6 -44 19 -85 26 -85 5 0 6 -6 3 -14 -3 -7 2
-21 11 -30 9 -9 13 -16 9 -16 -3 0 -1 -6 5 -13 6 -8 9 -16 6 -19 -3 -3 1 -11
10 -18 8 -7 15 -16 15 -21 0 -18 73 -118 82 -113 4 3 7 0 6 -8 -2 -7 3 -12 10
-10 6 1 12 -4 12 -10 0 -20 48 -60 61 -52 7 4 9 3 6 -3 -4 -6 2 -18 13 -28 11
-10 20 -15 20 -12 0 4 9 -2 21 -14 11 -11 27 -18 34 -15 8 3 17 0 21 -6 4 -7
3 -8 -4 -4 -7 4 -12 4 -12 1 0 -13 111 -56 152 -58 9 -1 14 -5 12 -9 -3 -4 4
-9 15 -10 12 -1 33 -3 49 -6 71 -10 255 -12 266 -3 7 6 22 8 34 4 13 -3 22 -1
22 6 0 7 5 9 11 5 15 -9 130 26 123 38 -3 5 5 6 19 3 16 -4 30 -1 40 10 9 8
19 15 22 14 15 -3 85 32 93 47 5 8 12 15 15 15 26 -4 37 0 31 11 -4 7 -3 8 4
4 10 -6 92 40 92 51 0 2 -6 1 -12 -3 -8 -4 -9 -3 -5 2 5 5 16 9 25 9 9 0 16 5
15 12 -2 7 3 10 11 7 8 -3 19 4 26 16 6 12 14 19 17 16 6 -6 38 23 38 35 0 4
4 11 9 16 5 5 6 3 2 -4 -10 -18 2 -16 20 2 9 8 12 15 7 15 -4 0 6 9 22 19 17
10 33 16 37 12 4 -3 7 -62 8 -131 2 -139 9 -202 20 -195 5 3 6 -4 3 -15 -3
-11 0 -20 6 -20 5 0 8 -7 5 -15 -8 -19 59 -87 78 -80 8 3 21 -1 28 -10 15 -18
71 -20 88 -3 7 7 12 9 12 5 0 -4 9 -3 20 3 32 17 93 271 76 316 -3 8 -2 13 3
10 5 -3 12 29 16 72 3 42 8 91 10 107 3 17 7 74 9 128 3 54 8 102 11 107 3 4
4 19 4 31 -1 13 6 71 15 128 9 57 13 108 10 113 -4 6 -2 13 3 17 11 7 46 198
38 210 -3 5 -1 11 4 13 5 1 12 23 16 48 10 70 12 84 18 100 13 35 37 162 32
170 -3 5 -1 11 4 14 5 3 13 30 17 59 4 28 8 54 9 57 16 67 25 122 21 129 -4 5
-2 13 4 16 6 4 9 20 6 36 -2 16 0 27 5 23 15 -9 10 124 -6 156 -16 31 -68 62
-91 53 -7 -3 -14 0 -14 6 0 18 -53 12 -100 -11 -36 -19 -50 -35 -77 -88 -18
-36 -31 -69 -30 -75 2 -5 -5 -18 -14 -29 -18 -19 -20 -18 -95 34 -43 30 -74
47 -70 39 4 -8 -1 -3 -12 10 -12 15 -24 21 -32 16 -8 -5 -11 -4 -7 2 8 13 -41
36 -55 27 -6 -4 -8 -2 -4 4 6 10 -86 48 -111 46 -7 -1 -13 3 -13 8 0 6 -9 8
-20 5 -10 -3 -20 -1 -22 3 -2 4 -21 11 -43 15 -64 10 -259 18 -267 10z m862
-49 c0 -2 -7 -7 -16 -10 -8 -3 -12 -2 -9 4 6 10 25 14 25 6z m-640 -246 c3 -3
31 -14 63 -24 31 -11 57 -23 57 -29 0 -5 8 -6 17 -3 10 4 14 4 10 0 -9 -10 23
-45 35 -38 4 3 7 0 6 -8 -2 -7 2 -12 9 -11 8 2 10 -4 6 -14 -4 -11 -3 -14 5
-9 7 4 12 1 12 -9 0 -10 5 -13 12 -9 7 5 8 3 4 -5 -9 -13 12 -73 23 -67 3 2 7
-6 7 -17 1 -12 6 -44 12 -72 12 -59 17 -215 8 -265 -3 -19 -8 -46 -10 -60 -2
-14 -9 -38 -15 -53 -6 -16 -9 -33 -5 -38 3 -5 1 -9 -4 -9 -12 0 -33 -56 -25
-64 4 -3 2 -6 -4 -6 -14 0 -35 -49 -27 -62 4 -6 2 -8 -3 -5 -12 7 -45 -52 -37
-65 3 -5 0 -7 -7 -6 -7 2 -13 -2 -14 -8 0 -6 -8 -18 -17 -28 -17 -16 -22 -30
-19 -48 0 -5 -3 -7 -8 -5 -15 4 -93 -92 -85 -105 4 -7 4 -10 -1 -6 -11 11 -36
-12 -28 -26 3 -6 3 -8 -2 -4 -11 11 -36 -12 -28 -25 3 -5 2 -7 -4 -4 -10 6
-45 -28 -37 -36 3 -3 0 -8 -7 -13 -8 -4 -10 -3 -5 4 10 17 -9 15 -23 -1 -6 -8
-7 -18 -3 -22 4 -5 2 -5 -4 -2 -13 7 -67 -37 -57 -47 4 -4 -1 -4 -11 0 -15 6
-17 4 -11 -6 5 -9 4 -11 -3 -6 -6 4 -20 -2 -32 -14 -11 -11 -22 -20 -25 -19
-13 2 -65 -24 -65 -33 0 -5 -4 -6 -10 -3 -5 3 -10 1 -10 -6 0 -7 -3 -10 -6 -7
-6 6 -91 -19 -109 -32 -14 -11 -255 -8 -255 3 0 5 -7 7 -15 3 -8 -3 -15 -1
-15 4 0 6 -3 9 -7 8 -7 -1 -29 7 -66 23 -28 13 -96 92 -116 136 -13 29 -27 50
-32 48 -4 -3 -5 4 -2 15 3 11 1 20 -4 20 -5 0 -10 6 -11 13 0 6 -3 37 -6 67
-8 96 -9 207 -1 219 4 7 5 15 2 18 -3 2 1 23 9 45 7 21 13 42 12 46 -1 4 4 17
11 30 7 13 10 30 7 38 -4 10 -2 12 6 8 7 -5 9 -2 5 9 -3 9 1 18 10 21 9 4 13
13 9 22 -3 8 -2 13 3 10 5 -3 12 1 15 10 4 10 2 13 -7 9 -6 -4 -3 1 7 9 11 9
16 16 12 16 -4 0 0 7 8 16 9 8 13 20 10 26 -5 7 -2 8 6 3 10 -6 12 -4 7 9 -4
9 -3 15 2 12 5 -3 17 6 26 20 11 18 13 24 4 19 -15 -9 11 22 54 63 15 15 27
32 27 39 0 7 5 13 11 13 5 0 8 4 5 9 -3 5 4 11 15 14 15 4 20 11 15 22 -3 9
-2 14 3 11 10 -7 53 38 46 47 -3 4 -2 5 2 2 9 -7 34 16 27 26 -3 5 0 8 7 7 7
-2 13 2 14 9 0 7 7 18 15 25 12 11 12 11 1 -4 -7 -10 -9 -18 -4 -18 13 0 58
53 55 64 -2 5 4 6 13 3 8 -4 15 -3 15 2 0 5 9 11 21 14 14 4 18 10 13 19 -4 7
-4 10 1 6 11 -10 67 21 60 32 -4 6 1 7 11 3 12 -4 15 -3 10 5 -5 8 -1 10 10 5
13 -5 15 -3 9 7 -5 8 -4 11 3 6 14 -9 63 14 55 27 -3 6 -1 7 6 3 6 -4 18 -2
26 4 8 7 15 9 15 6 0 -4 10 -1 23 6 12 7 30 11 40 9 9 -1 17 1 17 6 0 9 192
11 200 3z"/>
<path d="M11595 44410 c3 -5 0 -7 -9 -4 -18 7 -59 -14 -51 -26 3 -5 0 -12 -6
-16 -8 -4 -9 -3 -5 4 4 7 3 12 -2 12 -14 0 -33 -26 -25 -33 3 -4 1 -7 -5 -7
-7 0 -11 -6 -9 -12 1 -7 -3 -12 -9 -11 -15 3 -77 -113 -69 -127 3 -6 1 -10 -5
-10 -7 0 -9 -7 -6 -16 3 -8 2 -13 -3 -10 -10 6 -43 -92 -35 -105 3 -5 0 -9 -6
-9 -6 0 -8 -4 -5 -10 3 -5 1 -10 -6 -10 -6 0 -9 -8 -6 -20 3 -11 1 -20 -3 -20
-5 0 -9 -8 -9 -17 -1 -40 -5 -53 -14 -53 -5 0 -7 -6 -4 -14 3 -8 3 -17 -1 -21
-4 -4 -7 -10 -8 -13 0 -4 -6 -26 -13 -50 -7 -24 -14 -56 -16 -72 -2 -16 -6
-37 -9 -47 -3 -10 -7 -29 -10 -43 -3 -14 -21 -95 -39 -180 -19 -85 -33 -165
-32 -177 1 -12 -1 -20 -5 -18 -7 4 -14 -27 -26 -105 -1 -8 -9 -41 -18 -73 -17
-60 -37 -246 -29 -260 3 -5 -3 -18 -14 -29 -12 -15 -13 -19 -3 -14 8 4 7 1 -4
-8 -10 -8 -15 -19 -12 -24 3 -6 -1 -13 -10 -16 -8 -3 -12 -11 -9 -16 4 -6 1
-9 -7 -8 -7 2 -12 -3 -10 -9 1 -7 -2 -13 -7 -13 -14 0 -62 -46 -55 -52 2 -3
-2 -8 -11 -12 -9 -3 -13 -2 -10 4 4 6 -5 5 -19 -1 -14 -7 -23 -16 -19 -22 3
-6 1 -7 -5 -4 -15 10 -43 -3 -35 -16 3 -6 1 -7 -6 -3 -12 8 -81 -14 -81 -26 0
-4 -7 -4 -17 -1 -12 5 -14 3 -8 -7 5 -8 4 -11 -3 -6 -14 8 -121 -45 -121 -61
-1 -7 -8 -10 -16 -7 -9 4 -18 -1 -22 -12 -3 -11 -11 -22 -15 -25 -12 -8 -11
-124 2 -124 1 0 3 -10 4 -22 4 -33 35 -75 52 -69 8 3 13 2 10 -3 -8 -12 29
-21 79 -20 32 0 36 2 20 10 -14 6 -5 7 28 3 33 -4 47 -3 47 5 0 7 4 9 10 6 12
-7 132 25 141 38 3 5 9 1 13 -8 3 -9 9 -14 13 -12 10 6 12 -11 19 -245 3 -110
10 -195 15 -192 5 3 6 -2 3 -10 -9 -24 25 -152 48 -182 11 -14 27 -23 34 -20
8 3 14 2 14 -3 0 -4 6 -8 13 -8 6 -1 27 -4 46 -9 22 -5 32 -4 28 3 -4 6 3 8
16 6 25 -5 111 52 102 66 -3 5 1 11 7 13 10 4 13 67 14 269 1 213 4 276 18
327 9 34 14 68 10 74 -4 7 -3 8 4 4 12 -7 38 32 34 52 -2 7 5 15 15 19 31 11
73 46 73 60 0 7 5 13 11 13 5 0 7 -4 4 -10 -3 -5 7 -2 24 7 16 10 27 21 25 25
-3 4 1 5 9 2 8 -3 22 2 30 11 9 9 19 16 22 15 25 -1 35 1 31 9 -4 5 4 7 16 3
13 -3 19 -1 15 5 -5 7 1 9 15 5 15 -4 19 -2 13 7 -5 10 -2 11 13 7 11 -4 23
-2 26 3 4 6 14 7 23 4 11 -4 14 -3 9 6 -6 9 0 10 20 5 17 -4 25 -3 21 3 -4 6
4 8 20 5 17 -3 24 -1 19 6 -3 6 1 8 11 6 10 -2 54 5 98 16 90 23 107 27 150
36 17 3 34 9 40 12 5 3 18 7 30 8 11 2 56 12 100 24 44 11 94 23 110 26 17 3
46 11 65 18 31 10 38 10 54 -6 10 -9 23 -16 29 -15 6 1 11 -3 12 -9 0 -7 9
-20 20 -30 12 -11 14 -15 5 -10 -8 5 -4 -2 10 -17 39 -41 50 -55 50 -66 0 -5
5 -11 12 -13 6 -2 13 -15 15 -29 2 -13 8 -25 13 -27 6 -2 10 -12 10 -22 0 -28
11 -51 21 -44 9 5 10 4 14 -33 3 -32 26 -83 37 -83 5 0 6 -5 3 -10 -3 -6 1
-13 9 -16 9 -3 13 -10 10 -15 -3 -5 0 -9 6 -9 6 0 8 -4 5 -10 -3 -5 -1 -10 5
-10 6 0 9 -4 6 -9 -3 -5 5 -20 19 -35 14 -15 29 -35 35 -46 6 -11 20 -25 33
-31 21 -12 21 -11 7 7 -8 10 0 6 18 -9 27 -21 44 -27 83 -27 27 0 49 5 49 10
0 6 3 9 8 9 20 -3 32 2 32 16 0 8 5 15 10 15 6 0 9 3 8 8 -1 4 3 17 10 29 12
22 15 129 3 148 -3 6 -6 15 -7 20 0 6 -2 16 -2 23 -1 7 -7 10 -14 6 -7 -4 -8
-3 -4 4 6 10 -8 46 -24 62 -3 3 -6 12 -8 20 -2 8 -10 19 -18 23 -9 5 -12 16
-9 27 4 11 0 22 -10 28 -9 5 -16 11 -14 13 5 9 -13 49 -22 49 -6 0 -7 5 -4 10
3 6 1 10 -4 10 -6 0 -10 3 -9 8 5 15 -25 71 -35 65 -6 -3 -7 -1 -3 5 8 14 -18
55 -28 45 -4 -4 -4 0 -1 9 4 10 -1 23 -13 34 -11 9 -18 23 -15 30 2 7 -5 18
-17 24 -11 6 -18 15 -15 20 7 12 -22 70 -35 70 -6 0 -9 3 -9 8 3 20 -2 33 -11
27 -6 -4 -9 -3 -8 2 5 18 -14 53 -25 47 -7 -4 -9 -4 -5 1 8 9 -31 85 -44 85
-4 0 -7 6 -6 13 2 6 -3 11 -10 9 -8 -1 -11 2 -7 8 7 11 -38 82 -48 75 -4 -3
-5 -2 -2 1 6 9 -36 84 -45 79 -4 -2 -7 2 -7 9 0 16 -104 176 -115 176 -4 0 -7
5 -5 12 1 7 -3 12 -10 13 -6 0 -15 4 -20 9 -5 5 -2 6 6 1 9 -5 12 -3 9 6 -3 8
-11 13 -17 11 -7 -1 -10 1 -7 6 3 5 -2 18 -10 28 -9 10 -12 13 -8 5 5 -9 3
-12 -5 -7 -6 4 -9 12 -6 17 9 13 -35 70 -47 63 -6 -4 -8 -3 -5 3 9 14 -51 103
-70 103 -8 0 -11 5 -8 11 4 5 -3 19 -16 30 -12 10 -19 19 -14 19 4 0 2 7 -5
15 -7 8 -17 12 -23 8 -6 -4 -7 -1 -2 7 5 8 2 17 -7 24 -8 6 -17 19 -21 29 -4
9 -17 22 -29 27 -13 5 -17 9 -9 9 11 1 10 5 -4 21 -10 11 -21 17 -25 15 -4 -3
-14 3 -21 12 -10 12 -10 14 -1 9 6 -4 12 -4 12 -1 0 9 -28 36 -34 33 -2 -2 -8
1 -13 6 -5 5 -3 6 5 2 20 -12 14 12 -8 27 -11 8 -17 16 -14 19 3 3 -6 15 -20
26 -15 11 -26 24 -26 30 0 5 -8 16 -17 23 -14 12 -16 12 -8 0 5 -10 4 -12 -4
-7 -6 4 -8 12 -5 18 4 6 -6 21 -21 34 -16 13 -24 24 -20 24 5 0 -9 18 -30 40
-21 22 -44 40 -51 40 -7 0 -14 6 -17 13 -6 16 -106 69 -117 62 -5 -3 -11 -1
-15 5 -3 5 -31 10 -61 10 -34 0 -53 -4 -49 -10z m296 -127 c13 -16 12 -17 -3
-4 -10 7 -18 15 -18 17 0 8 8 3 21 -13z m-158 -327 c-4 -5 1 -7 11 -3 11 5 15
3 10 -5 -5 -7 -2 -9 9 -5 11 4 14 2 11 -7 -3 -8 10 -26 28 -41 18 -15 27 -24
19 -19 -8 4 0 -13 19 -39 18 -25 36 -44 41 -42 4 3 11 0 15 -6 4 -8 3 -9 -4
-5 -21 13 -13 -8 13 -36 14 -15 25 -31 25 -35 0 -5 13 -23 29 -41 17 -17 27
-32 24 -32 -3 0 0 -7 7 -15 7 -8 17 -12 23 -8 6 3 7 1 3 -5 -4 -7 3 -23 16
-36 13 -13 24 -30 26 -37 6 -23 24 -39 35 -32 6 3 7 1 3 -6 -4 -6 4 -25 18
-42 14 -17 26 -35 26 -40 0 -6 5 -7 12 -3 6 4 8 3 5 -3 -8 -13 22 -55 34 -47
6 3 9 0 8 -7 -3 -22 12 -50 24 -42 6 3 7 1 3 -5 -4 -6 2 -20 14 -32 11 -11 20
-22 20 -24 0 -3 5 -17 12 -33 15 -37 19 -51 25 -90 3 -18 8 -31 12 -28 4 2 8
-2 8 -10 0 -8 -4 -12 -9 -9 -5 4 -8 -2 -6 -12 2 -10 -1 -19 -7 -19 -22 -2 -55
-17 -55 -25 0 -5 -6 -7 -14 -4 -8 3 -17 0 -21 -5 -3 -6 -11 -9 -16 -6 -5 4
-15 3 -21 -1 -7 -5 -19 -9 -28 -9 -8 -1 -42 -10 -75 -19 -33 -10 -67 -19 -75
-21 -74 -14 -280 -69 -280 -74 0 -3 -12 -7 -27 -7 -41 -2 -153 -27 -153 -34 0
-12 -39 -8 -50 6 -7 7 -17 11 -23 7 -6 -3 -7 -1 -3 5 4 7 4 12 -1 12 -4 0 -8
20 -8 45 0 25 4 45 8 45 5 0 8 12 6 28 -1 15 1 34 4 42 4 8 9 33 12 55 2 22
10 64 16 94 5 29 8 60 5 68 -3 8 -2 12 3 9 8 -5 32 103 35 157 0 15 5 27 10
27 4 0 6 6 3 14 -3 8 -3 17 1 20 3 4 7 12 9 19 1 7 10 41 19 77 8 36 17 74 18
85 1 11 8 33 15 49 6 16 10 35 7 42 -3 8 -1 16 5 20 6 3 8 12 5 20 -3 8 -2 14
3 14 11 0 32 81 24 93 -3 6 -1 7 5 3 10 -6 28 29 24 46 -1 4 6 4 15 1 9 -4 14
-2 10 3 -3 5 3 10 13 10 10 0 16 -5 13 -10z"/>
<path d="M14893 44403 c-13 -2 -23 -9 -23 -14 0 -6 -4 -8 -9 -5 -4 3 -16 -3
-25 -13 -21 -23 -58 -119 -51 -131 3 -4 1 -10 -4 -12 -6 -1 -11 -14 -13 -28
-2 -14 -9 -34 -15 -46 -7 -11 -14 -32 -17 -45 -2 -13 -9 -37 -16 -54 -6 -16
-11 -31 -11 -32 1 -4 -10 -35 -20 -61 -5 -13 -6 -28 -3 -34 4 -7 2 -8 -4 -4
-11 7 -16 -7 -15 -41 1 -7 -3 -13 -7 -13 -7 0 -18 -31 -25 -70 0 -3 -6 -15
-14 -28 -7 -13 -13 -36 -13 -52 -1 -16 -5 -27 -10 -24 -8 5 -12 -11 -9 -30 1
-5 -2 -12 -7 -15 -13 -9 -62 -142 -56 -152 3 -5 1 -9 -5 -9 -6 0 -14 -12 -17
-27 -4 -16 -17 -48 -30 -73 -12 -24 -20 -48 -18 -52 3 -4 0 -8 -6 -8 -6 0 -9
-4 -5 -9 3 -5 1 -12 -5 -16 -6 -4 -8 -11 -5 -16 4 -5 2 -9 -3 -9 -11 0 -35
-60 -24 -60 4 0 2 -4 -4 -8 -16 -11 -45 -73 -38 -83 3 -5 0 -9 -6 -9 -6 0 -8
-4 -5 -10 3 -5 1 -10 -5 -10 -7 0 -9 -7 -6 -15 3 -9 -1 -18 -10 -22 -8 -3 -13
-12 -10 -20 4 -9 2 -11 -6 -7 -8 5 -9 1 -4 -12 4 -10 4 -15 0 -11 -9 8 -36
-42 -29 -53 3 -5 0 -12 -7 -17 -14 -9 -81 -141 -81 -160 0 -7 -4 -10 -8 -8
-11 7 -41 -44 -33 -58 4 -7 4 -9 0 -5 -11 10 -48 -31 -40 -44 4 -6 3 -9 -2 -6
-10 5 -45 -27 -38 -35 3 -3 -3 -4 -13 -3 -10 0 -17 -5 -15 -12 1 -8 -3 -12
-10 -9 -7 2 -26 -2 -42 -11 -33 -16 -146 -25 -146 -11 0 5 -4 9 -10 9 -5 0
-19 9 -30 20 -12 12 -25 18 -31 15 -5 -4 -8 -1 -7 7 2 7 -4 12 -12 10 -8 -2
-12 0 -8 4 5 4 -3 22 -17 40 -14 18 -25 37 -25 41 0 5 -6 15 -12 22 -7 6 -13
15 -13 19 -2 21 -48 142 -54 142 -5 0 -6 10 -4 23 2 12 -1 36 -7 52 -7 17 -14
54 -16 83 -2 30 -7 59 -11 65 -3 6 -7 38 -8 71 0 34 -4 147 -7 251 -4 105 -7
195 -7 200 0 6 2 66 6 135 5 130 -8 237 -29 224 -7 -4 -8 -2 -4 5 10 15 -13
43 -27 34 -6 -3 -7 -1 -3 5 10 16 -41 38 -92 41 -50 2 -117 -32 -108 -56 4 -9
2 -11 -5 -7 -7 4 -10 1 -7 -7 3 -8 -2 -19 -9 -24 -8 -6 -15 -24 -16 -40 -2
-17 -7 -37 -12 -45 -12 -18 -20 -570 -8 -570 4 0 8 -37 8 -83 1 -89 23 -249
34 -242 4 2 5 -9 3 -26 -2 -16 0 -29 5 -29 6 0 8 -11 5 -25 -2 -14 0 -25 7
-25 5 0 8 -6 5 -13 -3 -8 1 -27 7 -43 7 -16 11 -34 10 -41 -1 -6 3 -14 8 -17
5 -3 7 -15 4 -26 -3 -11 0 -20 6 -20 6 0 8 -7 4 -17 -4 -10 -2 -14 4 -10 7 5
9 -1 5 -15 -4 -16 -2 -19 8 -13 9 5 11 4 6 -3 -4 -7 -4 -18 1 -24 4 -7 8 -19
10 -27 1 -8 12 -28 24 -44 12 -16 16 -26 10 -22 -8 4 -7 -5 3 -24 9 -17 21
-31 26 -31 6 0 9 -3 8 -7 -2 -11 20 -63 27 -63 4 0 3 5 -1 12 -4 7 -3 8 4 4 7
-4 12 -15 12 -25 0 -22 33 -54 45 -44 4 5 5 2 1 -5 -9 -15 8 -38 38 -54 20
-11 20 -10 6 7 -10 13 -11 16 -2 11 7 -4 17 -19 22 -32 6 -16 15 -22 25 -18
10 4 15 2 13 -7 -2 -8 4 -13 14 -13 10 1 16 -2 13 -6 -7 -11 59 -36 126 -48
52 -10 157 -8 189 4 8 3 26 8 40 10 13 3 29 9 36 15 6 5 14 6 17 2 4 -3 7 -1
7 5 0 7 3 11 8 10 16 -4 52 14 46 24 -4 7 -2 8 4 4 14 -9 55 12 47 24 -3 5 0
12 6 16 8 4 9 3 5 -4 -10 -17 9 -15 23 1 6 8 7 17 3 21 -4 4 0 6 8 4 9 -2 14
3 12 11 -2 8 3 11 12 8 17 -7 41 18 31 33 -4 6 -1 9 7 8 7 -2 12 3 10 10 -1 8
2 11 7 8 11 -7 83 79 74 88 -4 3 -1 6 5 6 6 0 19 15 28 33 9 17 25 42 36 54
11 12 17 26 14 32 -4 5 -1 13 5 17 8 5 10 2 5 -7 -4 -8 0 -5 9 6 21 25 117
215 109 215 -3 0 2 7 10 16 9 8 14 20 11 25 -4 5 -1 9 5 9 7 0 10 7 6 15 -3 8
-2 15 3 15 9 0 43 70 41 84 -1 5 2 12 7 15 10 7 63 127 66 151 2 8 5 20 8 25
17 27 40 116 33 126 -5 8 -3 9 6 4 9 -6 12 -4 8 6 -3 8 0 19 6 25 16 15 45 -5
38 -25 -3 -8 0 -11 7 -7 7 5 9 1 5 -8 -3 -9 -1 -16 5 -16 6 0 8 -7 5 -15 -4
-8 -1 -15 6 -15 6 0 8 -4 5 -10 -3 -5 -1 -10 5 -10 6 0 8 -4 5 -10 -3 -5 -2
-10 3 -10 5 0 9 -6 9 -14 0 -26 25 -76 36 -69 6 3 7 1 3 -5 -8 -13 38 -115 48
-105 4 4 4 -1 0 -11 -6 -15 -4 -17 6 -11 8 5 11 4 7 -2 -8 -13 27 -86 36 -77
4 4 8 1 8 -7 4 -46 19 -80 31 -73 7 4 8 2 4 -4 -9 -15 42 -95 55 -86 6 3 9 -2
7 -12 -2 -11 2 -18 10 -16 6 1 11 -1 11 -5 -1 -5 -1 -15 0 -23 1 -12 3 -12 9
-2 6 9 13 7 28 -10 19 -22 19 -23 -1 -9 -11 7 -7 2 8 -13 16 -14 33 -24 38
-21 5 4 9 2 9 -3 0 -27 134 -40 171 -16 8 5 17 9 21 9 3 0 10 4 15 9 5 5 2 6
-6 1 -9 -5 -12 -4 -7 3 4 7 13 12 21 12 32 0 51 155 20 166 -8 4 -12 10 -9 15
3 5 0 9 -6 9 -6 0 -9 4 -5 10 8 13 -35 61 -48 53 -6 -3 -7 -2 -4 4 8 13 -37
56 -48 46 -4 -5 -5 -2 -1 5 4 6 2 12 -4 12 -6 0 -8 5 -5 11 4 6 -2 13 -14 16
-11 3 -18 9 -16 14 8 13 -18 49 -35 49 -10 0 -11 3 -3 8 8 5 8 11 -1 24 -7 10
-16 15 -20 11 -4 -4 -4 0 -1 9 3 8 0 22 -8 29 -7 8 -12 20 -9 28 3 9 0 11 -8
6 -8 -5 -11 -4 -7 2 8 13 -12 73 -24 73 -5 0 -8 3 -7 8 5 20 -15 91 -24 85 -6
-3 -8 -1 -5 5 4 5 -2 48 -13 94 -24 103 -60 347 -60 409 0 25 -3 49 -7 52 -3
4 -5 64 -4 133 1 69 -1 124 -6 121 -5 -3 -7 10 -5 30 4 27 1 34 -8 28 -8 -5
-11 -4 -6 3 4 6 0 27 -8 46 -22 54 -93 76 -183 59z m-703 -1647 c0 -2 -8 -10
-17 -17 -16 -13 -17 -12 -4 4 13 16 21 21 21 13z"/>
<path d="M36593 44163 c-24 -2 -43 -7 -43 -11 0 -4 -21 -8 -47 -9 -25 -1 -49
-7 -53 -13 -4 -6 -14 -8 -23 -4 -9 3 -17 2 -17 -4 0 -5 -6 -9 -12 -9 -21 2
-108 -25 -108 -33 0 -3 -6 -7 -13 -7 -24 0 -107 -36 -101 -44 3 -5 -3 -6 -12
-2 -13 5 -15 3 -9 -7 5 -8 4 -11 -3 -6 -12 7 -105 -37 -97 -47 3 -4 2 -5 -2
-2 -6 5 -72 -32 -83 -45 -3 -4 -15 -12 -28 -19 -12 -7 -20 -17 -16 -23 5 -7 2
-8 -5 -3 -8 5 -24 -4 -42 -24 -16 -18 -29 -29 -29 -24 -1 4 -10 -3 -20 -16
-11 -13 -20 -20 -20 -15 0 4 -11 -3 -25 -16 -13 -12 -23 -28 -22 -34 1 -6 -4
-10 -10 -8 -7 1 -13 -3 -13 -10 0 -6 -3 -8 -7 -5 -7 7 -38 -32 -38 -48 0 -5
-5 -10 -12 -10 -14 0 -28 -13 -28 -28 -1 -7 -6 -11 -12 -10 -6 1 -28 -18 -48
-42 -20 -25 -33 -45 -28 -45 4 0 -3 -7 -15 -16 -23 -16 -31 -40 -9 -28 6 4 -3
-7 -22 -25 -19 -17 -30 -31 -25 -31 5 0 1 -5 -8 -11 -9 -5 -15 -16 -12 -23 3
-8 0 -17 -7 -22 -8 -4 -10 -3 -5 4 4 7 5 12 3 12 -3 0 -14 -16 -26 -36 -12
-19 -15 -32 -9 -28 7 4 5 -2 -5 -13 -10 -12 -20 -29 -21 -38 -1 -9 -7 -20 -12
-23 -15 -11 -45 -83 -39 -93 4 -5 1 -9 -5 -9 -7 0 -9 -7 -6 -16 3 -8 2 -13 -3
-10 -10 7 -55 -140 -47 -153 4 -5 1 -11 -5 -13 -16 -5 -26 -218 -10 -218 7 0
9 -5 6 -10 -9 -14 22 -115 40 -134 9 -8 16 -18 15 -21 -1 -21 1 -25 10 -20 5
3 8 0 5 -7 -6 -15 90 -138 107 -138 6 0 5 7 -3 18 -13 15 -12 16 4 3 9 -8 15
-16 12 -19 -6 -6 25 -42 36 -42 5 0 24 -11 43 -23 43 -30 170 -71 191 -63 10
3 13 2 10 -5 -5 -7 18 -9 69 -7 42 2 76 6 76 10 0 4 14 5 30 2 20 -5 30 -3 30
6 0 7 7 10 16 6 9 -3 21 -3 27 1 7 4 18 8 27 9 47 7 152 44 161 57 3 5 10 9
15 8 24 -1 53 12 47 22 -3 5 -1 7 5 3 13 -8 105 38 95 48 -4 4 0 4 8 1 9 -3
27 5 44 22 16 15 25 22 21 15 -7 -11 -4 -12 13 -3 11 7 21 14 21 17 0 3 -5 2
-12 -2 -7 -4 -8 -3 -4 5 4 6 12 9 17 6 11 -8 101 44 94 55 -3 4 3 7 13 6 9 0
16 4 15 10 -1 7 5 11 15 10 10 0 16 5 14 14 -2 8 0 12 4 8 4 -4 13 -3 21 3 7
6 13 8 13 4 0 -4 7 -2 15 5 8 7 12 17 8 24 -3 6 -3 8 2 4 7 -7 65 18 65 28 0
3 -5 2 -12 -2 -7 -4 -8 -3 -4 5 4 6 12 9 17 5 13 -8 40 16 32 28 -3 6 0 9 8 6
7 -2 18 -1 24 4 5 4 25 20 43 34 18 15 36 23 40 20 9 -9 11 -76 2 -76 -7 0
-45 -159 -45 -185 0 -5 -3 -12 -6 -15 -7 -5 -42 -147 -42 -167 0 -7 -3 -13 -7
-13 -5 0 -15 -30 -35 -110 -1 -3 -7 -18 -14 -34 -6 -16 -10 -35 -7 -42 3 -7 1
-14 -5 -16 -5 -2 -12 -16 -15 -33 -3 -16 -9 -34 -13 -40 -9 -12 -40 -95 -42
-110 0 -5 -9 -25 -20 -42 -11 -18 -17 -38 -13 -44 4 -8 3 -9 -4 -5 -11 6 -16
-6 -13 -26 0 -5 -3 -8 -8 -8 -11 0 -26 -40 -22 -55 1 -5 -1 -7 -5 -3 -9 10
-46 -50 -39 -63 4 -5 -1 -9 -10 -9 -11 0 -15 -5 -11 -16 3 -8 2 -13 -3 -10 -9
6 -56 -53 -56 -71 0 -7 -3 -12 -7 -10 -10 3 -58 -45 -53 -53 3 -4 -3 -14 -13
-21 -16 -13 -16 -12 -2 6 8 11 0 7 -18 -9 -17 -16 -29 -33 -26 -38 3 -5 2 -7
-3 -6 -15 4 -54 -23 -47 -34 5 -7 2 -8 -6 -3 -8 5 -18 2 -26 -9 -7 -10 -15
-17 -18 -17 -21 3 -26 0 -20 -11 4 -6 3 -8 -3 -5 -5 3 -33 -1 -62 -10 -38 -11
-75 -13 -134 -9 -113 8 -123 10 -142 29 -18 19 -30 23 -20 7 3 -6 -1 -7 -10
-4 -9 4 -13 9 -10 12 8 8 -107 122 -117 116 -4 -3 -8 2 -8 11 0 9 -4 14 -9 11
-5 -3 -15 2 -22 12 -13 15 -12 16 4 3 25 -20 21 2 -5 25 -14 12 -18 14 -13 4
4 -8 -4 -4 -18 9 -15 14 -27 29 -27 34 0 5 9 -1 20 -14 10 -13 19 -19 20 -12
0 13 -54 56 -84 67 -71 25 -163 10 -184 -31 -24 -46 -5 -198 31 -242 6 -7 12
-19 13 -27 3 -18 74 -104 88 -105 6 -1 16 0 21 1 6 1 7 -2 2 -6 -8 -8 21 -44
35 -44 5 0 16 -7 25 -16 9 -8 22 -13 30 -10 8 3 11 1 8 -4 -6 -9 -1 -11 33
-14 7 -1 16 -7 20 -13 10 -16 83 -41 101 -35 8 3 11 0 7 -7 -7 -11 7 -15 52
-13 13 1 20 -3 16 -9 -3 -6 2 -10 12 -8 11 1 28 -2 39 -7 20 -8 208 -12 272
-5 18 2 30 8 26 14 -3 6 -1 7 6 3 17 -11 73 3 65 16 -4 6 -2 8 4 4 14 -8 94
23 86 35 -3 5 3 6 12 2 12 -4 15 -3 10 5 -5 8 -1 10 10 5 13 -5 15 -3 9 7 -5
9 -4 11 3 6 15 -9 64 23 55 37 -4 6 -1 7 6 3 13 -9 54 22 46 34 -3 4 3 7 13 6
9 0 16 5 14 12 -1 8 1 11 6 8 12 -7 64 48 55 58 -5 4 -2 6 6 4 8 -1 20 8 27
21 7 13 20 28 28 33 9 5 16 15 16 22 0 8 7 17 16 20 9 4 14 13 10 21 -3 8 0
14 6 12 7 -1 12 3 13 8 0 6 10 20 23 33 13 13 21 30 18 38 -3 8 0 13 7 11 7
-1 11 6 11 15 -1 10 2 16 6 13 11 -7 52 74 44 87 -4 7 -4 10 1 6 11 -10 47 60
39 74 -4 6 -3 8 3 5 8 -5 64 105 68 133 1 3 9 22 18 44 9 21 14 42 11 47 -3 5
-1 9 5 9 12 0 33 69 24 83 -3 6 -1 7 4 4 10 -6 36 67 36 99 0 8 3 14 7 14 7 0
9 10 13 55 1 14 5 25 8 25 9 0 29 82 23 92 -3 4 -1 8 4 8 5 0 9 6 9 13 1 6 5
26 11 42 5 17 8 38 6 48 -1 10 2 14 8 10 7 -4 9 2 6 15 -4 12 -2 22 4 22 6 0
8 7 5 15 -4 8 -1 17 4 21 6 3 9 17 6 30 -2 14 0 21 6 17 6 -4 8 0 4 10 -3 9
-2 19 2 22 7 4 23 72 26 110 0 6 4 16 8 23 5 7 5 22 2 33 -5 14 -3 19 3 15 6
-4 11 2 12 11 4 71 6 83 14 83 4 0 6 11 4 25 -3 13 -2 23 1 20 15 -9 42 192
38 286 -5 149 -43 194 -162 194 -47 0 -67 -5 -93 -23 -18 -13 -29 -28 -26 -34
4 -6 3 -8 -3 -5 -11 7 -67 -46 -58 -55 3 -3 -3 -11 -12 -19 -17 -13 -17 -13
-3 6 14 20 14 20 -7 1 -13 -10 -20 -23 -16 -29 3 -5 1 -7 -4 -4 -14 9 -105
-72 -96 -85 3 -7 1 -8 -5 -4 -14 8 -84 -53 -75 -67 3 -6 1 -7 -6 -3 -15 10
-43 -13 -34 -27 3 -5 2 -7 -4 -4 -5 3 -26 -9 -46 -27 -21 -19 -37 -31 -37 -28
0 3 -9 -3 -20 -13 -11 -10 -17 -22 -13 -28 3 -6 1 -7 -5 -3 -7 4 -12 2 -12 -4
0 -6 -4 -9 -9 -6 -8 6 -58 -42 -53 -50 6 -9 -43 -41 -55 -37 -7 3 -17 -7 -23
-21 -5 -14 -12 -26 -15 -26 -4 0 -3 6 1 13 4 6 -2 4 -13 -5 -11 -10 -25 -18
-31 -18 -6 0 -19 -10 -29 -23 -10 -13 -21 -23 -25 -23 -3 1 -17 -8 -30 -20
-13 -11 -32 -23 -42 -27 -10 -4 -14 -12 -10 -18 4 -8 3 -9 -4 -5 -7 4 -12 2
-12 -4 0 -6 -4 -9 -9 -6 -5 3 -11 -1 -15 -9 -3 -8 -12 -12 -20 -9 -8 3 -23 -3
-34 -14 -11 -11 -22 -18 -25 -16 -2 2 -21 -7 -41 -21 -21 -14 -35 -21 -31 -15
3 6 0 7 -9 4 -9 -3 -13 -10 -10 -15 3 -5 -5 -8 -18 -8 -13 1 -53 -8 -89 -18
-58 -17 -73 -18 -126 -7 -96 20 -139 46 -165 104 -13 28 -17 231 -5 223 5 -3
7 1 6 8 -1 8 2 32 6 54 5 22 9 42 10 45 0 3 6 14 12 25 6 11 13 31 14 45 2 14
7 28 12 31 4 3 10 16 12 29 2 13 9 27 15 30 6 4 12 16 13 28 0 12 3 19 6 17 7
-8 70 99 64 109 -3 5 -2 6 3 3 5 -3 21 11 34 31 14 20 44 55 68 77 24 22 50
55 57 73 8 17 19 32 25 32 7 0 5 -7 -4 -16 -9 -8 -16 -18 -16 -22 1 -4 18 11
38 34 20 22 45 43 55 47 9 3 17 14 17 22 0 9 5 13 10 10 12 -8 42 20 32 30 -4
4 -2 6 3 5 22 -5 36 1 29 12 -4 7 -3 8 4 4 14 -8 64 23 56 35 -3 5 3 6 12 2
13 -5 15 -3 9 7 -6 9 -4 11 5 5 7 -4 16 -2 21 6 4 8 14 14 21 15 34 3 39 5 34
13 -3 5 0 8 7 7 15 -1 161 56 165 66 2 4 9 5 17 2 7 -3 24 0 37 7 13 7 33 12
46 10 12 -1 22 1 22 6 0 5 16 7 35 5 19 -2 35 0 35 5 0 5 27 7 60 5 42 -3 65
0 77 9 9 8 14 9 10 3 -6 -11 17 -15 126 -26 9 -1 17 -6 17 -11 0 -5 7 -6 15
-3 9 3 18 -1 22 -10 3 -8 12 -13 19 -10 8 3 13 0 11 -6 -1 -6 4 -13 12 -16 9
-3 11 0 6 8 -5 9 -4 11 4 6 6 -4 9 -11 6 -15 -5 -9 19 -33 45 -45 8 -4 6 0 -4
8 -11 9 -15 16 -8 16 6 0 17 -9 24 -19 23 -32 101 -22 140 18 17 18 27 35 22
42 -5 8 -3 9 6 4 10 -6 12 -4 7 8 -3 10 -2 17 4 17 13 0 10 97 -3 123 -16 31
-51 67 -60 61 -5 -3 -7 0 -6 6 2 6 -8 19 -22 28 -20 14 -23 14 -16 2 5 -8 -2
-3 -15 11 -26 29 -84 55 -111 51 -10 -2 -18 2 -18 8 0 6 -8 10 -17 9 -10 -1
-20 0 -23 1 -64 24 -258 35 -397 23z m-663 -666 c0 -2 -12 -14 -27 -28 l-28
-24 24 28 c23 25 31 32 31 24z m-169 -2024 c13 -16 12 -17 -3 -4 -17 13 -22
21 -14 21 2 0 10 -8 17 -17z m39 -38 c14 -19 14 -19 -2 -6 -10 7 -18 18 -18
24 0 6 1 8 3 6 1 -2 9 -13 17 -24z m850 -75 c0 -5 -5 -10 -11 -10 -5 0 -7 5
-4 10 3 6 8 10 11 10 2 0 4 -4 4 -10z"/>
<path d="M38547 43694 c-3 -4 -23 -7 -44 -9 -60 -3 -204 -46 -196 -58 3 -5 1
-7 -5 -3 -13 8 -92 -22 -92 -35 0 -5 -3 -8 -7 -8 -21 3 -33 -2 -27 -13 4 -6 3
-8 -4 -5 -15 10 -43 -3 -35 -17 3 -6 3 -8 -2 -4 -7 7 -37 -5 -59 -24 -6 -5
-20 -16 -31 -24 -11 -9 -14 -12 -6 -8 9 4 12 3 7 -4 -4 -6 -12 -9 -19 -6 -17
6 -99 -65 -91 -78 5 -7 2 -8 -5 -4 -14 9 -53 -22 -45 -36 3 -4 0 -7 -7 -6 -6
2 -14 -3 -17 -11 -3 -9 0 -11 8 -6 9 5 11 4 6 -4 -4 -6 -12 -9 -17 -5 -15 9
-49 -25 -42 -42 3 -8 -5 -17 -20 -23 -14 -5 -28 -15 -33 -22 -5 -8 -3 -10 7
-4 8 4 2 -3 -12 -16 -37 -35 -91 -118 -84 -129 3 -6 0 -10 -8 -10 -13 0 -64
-96 -60 -112 2 -4 -2 -8 -8 -8 -5 0 -7 -4 -4 -10 3 -5 2 -10 -3 -10 -12 0 -54
-101 -56 -134 0 -13 -5 -22 -10 -18 -5 3 -7 -2 -3 -11 3 -10 3 -17 -2 -17 -4
0 -18 -46 -31 -102 -21 -92 -28 -200 -22 -318 3 -48 33 -145 48 -153 8 -4 12
-12 9 -16 -8 -14 15 -69 31 -75 9 -3 12 -10 9 -16 -3 -5 -1 -10 4 -10 6 0 10
-6 9 -12 -2 -7 2 -12 8 -11 7 1 11 -5 10 -15 0 -10 5 -16 14 -14 8 2 12 0 8
-3 -11 -11 11 -47 24 -39 7 5 8 2 3 -5 -7 -13 40 -71 58 -71 6 0 27 -18 48
-41 21 -23 43 -38 48 -34 6 3 11 -1 11 -11 0 -10 3 -15 6 -12 3 4 15 -3 26
-14 11 -11 26 -17 33 -14 8 3 17 0 21 -6 5 -7 2 -8 -7 -4 -8 4 -5 0 6 -8 11
-9 25 -14 32 -12 7 3 18 -4 24 -15 6 -12 17 -18 25 -15 8 3 13 2 10 -3 -6 -8
99 -57 107 -49 2 1 11 -3 20 -11 9 -7 24 -11 32 -7 9 3 13 2 10 -3 -4 -8 82
-40 125 -46 8 -1 28 -8 45 -14 16 -7 46 -14 65 -16 19 -2 35 -4 35 -5 0 -1 7
-3 15 -5 77 -20 105 -25 116 -21 8 3 16 1 19 -4 4 -6 33 -10 65 -10 32 0 61 4
65 10 3 5 12 7 20 3 8 -3 15 0 15 7 0 6 4 9 9 5 14 -8 63 45 57 62 -3 8 -2 12
3 8 11 -6 8 106 -3 124 -4 6 -12 8 -18 5 -6 -4 -8 -2 -5 3 8 12 -17 36 -26 26
-4 -3 -7 -1 -7 6 0 7 -4 9 -10 6 -5 -3 -10 -2 -10 3 0 13 -129 44 -186 46 -24
0 -44 4 -44 7 0 7 -108 24 -124 20 -4 -1 -14 3 -22 10 -8 6 -21 9 -29 5 -9 -3
-14 -2 -11 3 3 5 -6 12 -21 16 -33 8 -129 53 -164 77 -14 9 -29 15 -33 11 -3
-3 -6 -1 -6 5 0 6 -10 16 -21 23 -17 9 -20 8 -14 -2 5 -8 4 -10 -3 -5 -7 4
-12 13 -12 21 0 7 -9 17 -20 20 -11 3 -20 11 -20 16 0 6 -4 7 -10 4 -5 -3 -10
0 -10 8 0 15 -44 60 -52 52 -2 -3 -5 1 -5 7 0 11 -57 104 -72 118 -7 6 -12 22
-25 88 -6 28 -13 52 -17 52 -3 0 -3 21 2 46 5 25 7 49 4 53 -6 11 28 10 42 -1
7 -5 17 -7 22 -4 5 4 13 1 17 -5 4 -8 3 -9 -4 -5 -7 4 -12 5 -12 2 0 -12 90
-57 101 -50 7 4 9 3 5 -4 -6 -10 30 -28 47 -24 4 1 7 -3 7 -9 0 -5 5 -7 10 -4
6 3 10 2 10 -2 0 -11 60 -34 71 -27 5 3 9 1 9 -5 0 -8 48 -25 75 -26 6 0 12
-3 15 -7 3 -4 21 -9 40 -12 19 -2 48 -9 63 -15 15 -6 38 -11 50 -11 12 0 61
-3 110 -6 48 -3 87 -2 87 3 0 5 17 9 38 10 79 3 192 30 192 45 0 5 4 7 9 4 13
-9 131 46 124 57 -3 6 -1 7 5 3 14 -9 62 14 62 30 0 7 6 11 13 9 6 -3 23 5 37
16 14 11 19 18 13 14 -18 -9 -16 0 4 16 11 10 14 10 9 2 -4 -7 -3 -13 2 -13
14 0 157 139 157 153 0 6 3 12 6 12 15 0 39 30 35 42 -3 8 -2 11 4 8 5 -3 15
5 22 17 12 23 14 29 17 49 0 5 5 8 10 5 7 -5 34 44 36 64 0 3 6 15 13 27 6 12
14 32 16 45 3 13 6 25 7 28 1 3 3 10 4 15 1 6 6 19 11 30 10 21 10 195 1 256
-3 20 -13 52 -23 70 -10 19 -19 36 -19 39 -4 23 -39 70 -53 71 -10 0 -12 3 -5
6 10 3 10 7 0 18 -7 7 -15 11 -19 8 -5 -2 -8 3 -8 11 0 9 -6 16 -14 16 -7 0
-20 8 -27 18 -13 16 -12 16 6 2 11 -8 5 2 -14 23 -19 20 -37 35 -39 32 -2 -2
-11 3 -19 11 -8 8 -19 11 -25 8 -7 -4 -8 -2 -4 4 4 7 -9 19 -34 32 -22 11 -40
17 -40 13 0 -5 -4 -2 -9 5 -4 7 -14 14 -22 15 -8 2 -20 6 -26 10 -7 5 -19 5
-25 1 -7 -4 -9 -3 -5 1 8 10 -47 27 -161 50 -72 15 -283 21 -295 9z m-537
-239 c0 -2 -10 -9 -22 -15 -22 -11 -22 -10 -4 4 21 17 26 19 26 11z m876 -75
c18 -6 39 -8 45 -4 8 4 9 3 5 -4 -8 -13 23 -31 42 -25 7 3 11 -1 10 -9 -2 -7
5 -13 16 -13 10 0 23 -10 27 -23 5 -13 13 -21 19 -17 6 3 7 0 4 -9 -4 -9 0
-18 9 -21 8 -4 20 -24 27 -46 7 -21 17 -39 21 -39 4 0 6 -9 4 -20 -2 -11 -1
-20 3 -20 4 0 5 -28 1 -62 -3 -35 -5 -73 -4 -85 1 -13 -2 -20 -8 -16 -6 4 -8
0 -4 -10 4 -10 1 -17 -5 -17 -6 0 -9 -2 -6 -6 3 -3 -5 -26 -18 -51 -13 -26
-20 -51 -17 -56 3 -6 1 -7 -4 -4 -13 8 -37 -18 -29 -31 3 -5 -9 -22 -26 -38
-17 -16 -28 -23 -24 -16 11 19 -7 14 -34 -11 -14 -12 -44 -31 -67 -41 -23 -10
-40 -22 -38 -26 3 -5 -4 -6 -15 -3 -11 3 -20 1 -20 -4 0 -5 -8 -9 -17 -10 -67
-7 -123 -17 -123 -22 0 -3 -48 -3 -107 0 -60 4 -112 4 -116 2 -4 -3 -14 0 -21
6 -7 6 -26 13 -42 15 -16 2 -42 9 -59 15 -16 7 -41 13 -55 14 -14 1 -28 6 -31
11 -4 5 -20 9 -37 10 -17 0 -28 4 -25 9 4 6 -2 8 -39 11 -7 1 -16 5 -19 9 -4
5 -18 10 -32 10 -14 1 -24 5 -22 8 5 6 -66 34 -78 31 -5 -1 -5 3 -1 9 5 9 2
10 -10 6 -11 -5 -15 -3 -10 5 5 8 2 9 -9 5 -9 -3 -19 -1 -23 5 -5 7 -2 8 7 3
8 -4 4 2 -9 14 -20 20 -21 24 -8 49 7 15 12 35 11 45 -2 10 1 14 8 10 7 -4 8
0 4 11 -5 11 -3 15 5 10 8 -5 9 -2 5 10 -5 11 -3 15 5 10 8 -5 9 -2 5 9 -4 10
-2 16 6 14 7 -1 11 6 11 15 -1 10 3 16 10 15 6 -1 11 6 11 15 0 9 4 20 9 25 5
5 6 2 1 -6 -5 -9 -4 -12 3 -7 7 4 12 14 12 22 0 8 5 12 10 9 6 -3 10 -1 10 5
0 6 15 24 33 41 17 16 32 35 32 42 0 6 7 12 15 12 8 0 15 5 15 12 0 6 4 15 9
20 5 5 6 3 2 -4 -4 -7 -4 -13 -1 -13 8 0 119 83 123 93 2 4 8 5 13 1 5 -3 9
-1 9 3 0 5 16 15 35 22 19 7 35 17 35 22 0 6 4 8 9 5 7 -5 109 32 121 44 3 3
13 5 23 6 56 3 68 5 63 12 -3 4 9 7 25 6 16 -1 41 1 56 5 28 7 174 -11 229
-29z m264 -848 c0 -4 -10 -13 -22 -21 -23 -14 -23 -14 -4 8 20 22 26 25 26 13z"/>
<path d="M38994 42768 l-19 -23 23 19 c21 18 27 26 19 26 -2 0 -12 -10 -23
-22z"/>
<path d="M36464 42908 l-19 -23 25 20 c14 11 27 21 29 22 2 2 0 3 -6 3 -5 0
-18 -10 -29 -22z"/>
<path d="M16680 41593 c-146 -59 -307 -181 -494 -373 -206 -213 -279 -309
-413 -545 -363 -640 -554 -1304 -557 -1935 0 -118 2 -242 6 -275 l7 -60 -56
-35 c-71 -45 -245 -210 -325 -309 -310 -384 -466 -898 -429 -1409 18 -244 67
-492 146 -737 19 -59 34 -109 33 -110 -2 -1 -25 -17 -53 -35 -138 -92 -280
-229 -378 -363 -194 -265 -280 -533 -279 -872 2 -313 76 -601 247 -960 l62
-131 -45 -49 c-242 -272 -393 -559 -459 -875 -26 -121 -25 -430 0 -550 26
-122 79 -274 131 -377 l45 -90 -45 -54 c-64 -78 -146 -201 -198 -299 -276
-520 -214 -1046 172 -1461 l43 -47 -72 -98 c-195 -270 -326 -563 -363 -816
-27 -178 -17 -305 36 -465 40 -121 109 -232 214 -342 46 -49 84 -92 84 -96 0
-4 -9 -20 -21 -36 -40 -56 -148 -286 -183 -390 -73 -214 -84 -437 -31 -595 61
-181 177 -311 370 -415 l77 -42 -6 -36 c-38 -216 -46 -376 -26 -516 61 -425
325 -709 771 -829 l66 -18 -18 -74 c-47 -196 -50 -445 -9 -599 101 -375 408
-593 893 -633 l87 -7 4 -150 c9 -332 101 -568 279 -717 134 -112 292 -161 512
-159 l140 1 1 -97 c2 -240 119 -410 368 -532 190 -94 421 -128 626 -93 l45 8
53 -86 c204 -326 449 -536 701 -601 98 -26 241 -28 336 -5 103 26 257 105 355
185 47 38 136 118 198 178 62 60 110 102 106 93 -28 -72 -194 -582 -234 -723
-96 -337 -189 -741 -250 -1086 -50 -287 -96 -635 -102 -776 l-3 -60 2333 -2
c1597 -2 2332 0 2332 7 0 6 -9 28 -20 49 -57 112 -55 92 -175 1591 -20 239
-53 656 -75 925 -22 270 -51 627 -65 795 -14 168 -27 330 -30 360 -2 30 -23
280 -45 555 -22 275 -49 610 -60 745 -11 135 -38 466 -60 735 -22 270 -42 519
-45 555 -4 36 -7 89 -7 118 -2 62 18 65 -198 -25 -261 -109 -480 -224 -815
-426 -234 -142 -422 -187 -599 -141 -153 40 -231 104 -342 284 -293 474 -386
911 -299 1409 47 274 135 502 370 966 236 466 325 667 425 961 127 373 180
668 180 1014 0 563 -153 1093 -523 1813 -200 389 -416 748 -791 1312 -531 800
-905 1427 -1340 2247 -1019 1924 -1760 3861 -1936 5062 -43 295 -53 604 -26
781 8 50 24 151 36 225 35 221 29 428 -17 538 -20 47 -82 112 -128 133 -61 28
-164 25 -245 -8z m152 -240 c24 -58 14 -264 -23 -468 -33 -186 -34 -196 -34
-460 0 -327 20 -504 101 -905 307 -1520 1383 -3997 2647 -6095 169 -280 300
-485 617 -965 536 -811 717 -1112 926 -1533 430 -869 476 -1456 180 -2290 -79
-223 -337 -829 -365 -860 -4 -4 -90 147 -191 335 -101 189 -195 366 -210 393
-15 28 -85 158 -155 290 -70 132 -144 272 -165 310 -21 39 -108 203 -195 365
-86 162 -176 331 -200 375 -23 44 -159 298 -300 565 -142 267 -351 661 -465
875 -114 215 -270 509 -347 655 -77 146 -262 495 -410 775 -149 281 -339 641
-423 800 -84 160 -176 335 -205 390 -29 55 -124 235 -210 400 -87 165 -177
336 -200 380 -37 70 -644 1236 -875 1680 -242 465 -653 1297 -698 1411 -60
151 -122 387 -147 554 -62 421 -8 922 152 1415 127 394 381 905 541 1095 198
232 435 447 568 515 62 32 72 31 86 -2z m-1511 -3441 c17 -59 51 -159 76 -222
81 -205 528 -1091 1115 -2210 31 -58 131 -249 223 -425 92 -176 187 -356 210
-400 23 -44 89 -168 145 -275 56 -107 117 -222 135 -255 18 -33 101 -190 185
-350 84 -159 165 -312 180 -340 15 -27 56 -104 90 -170 35 -66 153 -289 263
-495 109 -206 218 -411 242 -455 283 -533 1413 -2651 1585 -2970 20 -38 89
-167 152 -285 180 -335 459 -856 637 -1186 l162 -301 -38 -71 c-21 -40 -41
-71 -45 -69 -3 1 -109 148 -234 327 -278 399 -529 755 -1283 1825 -578 822
-667 947 -1094 1550 -121 171 -297 418 -390 550 -556 784 -1350 1894 -1782
2490 -204 281 -419 584 -480 675 -486 726 -726 1399 -710 1985 14 482 174 871
489 1190 l109 110 14 -58 c7 -33 27 -107 44 -165z m-519 -2570 c196 -398 283
-532 926 -1417 505 -695 1976 -2747 2922 -4075 178 -250 389 -547 470 -660 80
-113 323 -455 540 -760 216 -305 464 -654 550 -775 250 -352 331 -474 303
-454 -54 38 -1138 1038 -1663 1534 -2318 2192 -3828 3814 -4337 4660 -495 824
-505 1518 -28 2001 66 67 184 163 200 163 6 0 58 -98 117 -217z m-392 -2249
c222 -342 685 -906 1259 -1533 719 -784 1965 -2024 3146 -3131 551 -516 1462
-1350 1575 -1442 39 -31 50 -47 50 -69 0 -26 -2 -28 -22 -17 -24 13 -202 126
-398 253 -167 107 -973 648 -1180 791 -91 62 -210 144 -265 182 -661 449
-2272 1599 -3255 2323 -583 429 -654 485 -819 645 -331 321 -511 624 -567 952
-33 192 -6 457 66 641 33 86 109 231 163 312 56 84 156 210 166 210 3 -1 40
-53 81 -117z m-313 -1928 c99 -122 332 -353 468 -461 102 -82 549 -415 930
-693 666 -486 1281 -928 1815 -1306 162 -114 354 -249 425 -300 445 -315 1221
-846 1730 -1185 393 -261 849 -554 879 -566 14 -5 23 -34 11 -34 -12 0 -1000
436 -1650 728 -274 123 -885 404 -1200 552 -143 67 -298 140 -345 162 -208 97
-844 407 -1150 561 -1154 582 -1772 957 -2020 1225 -316 341 -370 726 -160
1147 60 120 164 279 179 273 5 -2 44 -48 88 -103z m7 -1745 c36 -28 123 -88
194 -133 677 -440 1888 -1059 3737 -1909 380 -175 412 -189 990 -448 297 -133
1134 -500 1282 -563 41 -17 53 -27 53 -44 0 -13 -6 -23 -14 -23 -44 0 -1259
248 -1991 406 -2176 470 -3686 887 -4211 1163 -255 134 -406 290 -471 484 -24
72 -27 97 -27 212 0 183 38 325 145 537 65 129 220 368 239 368 4 0 37 -23 74
-50z m66 -1840 c790 -351 2771 -856 5535 -1410 325 -65 599 -120 610 -123 11
-3 -18 -3 -65 -1 -47 2 -164 6 -260 9 -96 3 -220 7 -275 10 -55 2 -163 7 -240
10 -136 5 -242 10 -482 20 -116 5 -200 9 -418 20 -60 2 -159 7 -220 10 -127 6
-443 23 -560 30 -44 2 -123 7 -175 10 -256 15 -561 33 -660 40 -41 3 -174 12
-295 20 -214 15 -413 30 -525 40 -30 3 -163 14 -295 25 -826 71 -1474 166
-1720 253 -165 59 -301 160 -354 266 -48 93 -65 243 -40 363 27 133 126 372
203 490 l18 27 51 -29 c29 -16 104 -52 167 -80z m202 -1354 c360 -72 813 -127
1638 -201 214 -19 809 -62 1115 -80 50 -3 115 -8 145 -10 30 -2 100 -7 155
-10 55 -3 136 -8 180 -11 44 -2 253 -13 465 -24 654 -32 996 -45 2075 -76 121
-3 221 -7 222 -8 8 -7 -997 -186 -1572 -281 -1863 -307 -3187 -438 -3765 -375
-408 45 -669 189 -789 436 -61 124 -76 201 -76 379 0 133 17 295 30 295 2 0
81 -15 177 -34z m6112 -662 c17 -45 28 -38 -314 -194 -1444 -657 -2718 -1141
-3566 -1354 -644 -162 -1077 -170 -1355 -25 -147 77 -250 212 -284 374 -27
128 -14 359 27 499 l12 38 78 -7 c88 -7 586 -8 656 0 26 2 97 7 157 10 694 37
1928 199 3230 426 373 64 1011 182 1185 218 166 35 166 35 174 15z m102 -306
c4 -13 22 -56 42 -96 19 -41 30 -77 26 -82 -15 -13 -389 -260 -609 -402 -958
-617 -1844 -1135 -2480 -1449 -312 -154 -500 -234 -698 -300 -185 -62 -275
-78 -397 -73 -219 9 -345 84 -430 257 -50 102 -70 196 -77 358 -8 185 -18 172
134 192 682 89 1799 455 3203 1050 334 142 867 378 1105 490 88 42 163 76 167
76 4 1 10 -9 14 -21z m118 -662 c-178 -185 -611 -607 -874 -850 -984 -911
-1775 -1491 -2199 -1612 -81 -23 -106 -26 -185 -21 -240 14 -453 122 -523 265
-24 50 -28 68 -27 142 0 47 7 103 15 124 14 39 15 40 174 101 735 284 2052
1032 3486 1979 l203 135 38 -56 37 -56 -145 -151z m385 -41 c35 -14 92 -29
127 -32 36 -3 63 -9 62 -13 -2 -3 -55 -54 -119 -113 -471 -436 -938 -1070
-1290 -1752 -90 -174 -109 -203 -218 -334 -305 -363 -623 -695 -746 -777 -150
-101 -307 -124 -455 -68 -110 42 -236 138 -341 259 -62 71 -179 239 -179 256
0 5 37 27 83 50 446 224 1129 752 1907 1473 272 251 667 635 895 869 110 112
203 205 206 206 3 0 34 -10 68 -24z"/>
<path d="M33075 41601 c-46 -21 -108 -86 -128 -133 -29 -69 -39 -143 -39 -271
1 -124 7 -172 58 -492 22 -140 14 -500 -15 -715 -135 -965 -614 -2361 -1348
-3929 -216 -461 -592 -1196 -835 -1636 -369 -665 -655 -1134 -1104 -1810 -380
-572 -588 -917 -790 -1310 -372 -725 -524 -1251 -524 -1815 0 -337 46 -605
166 -973 96 -292 196 -522 439 -1002 95 -187 195 -397 224 -468 217 -536 233
-1058 46 -1523 -80 -197 -236 -465 -320 -549 -114 -114 -307 -161 -496 -121
-95 20 -204 68 -327 144 -243 148 -315 189 -482 272 -191 96 -498 230 -525
230 -2 0 -1 -8 2 -18 2 -10 -5 -133 -17 -273 -11 -140 -29 -364 -40 -499 -11
-135 -29 -353 -40 -485 -11 -132 -36 -433 -55 -670 -19 -236 -37 -455 -40
-485 -10 -118 -37 -454 -95 -1165 -33 -407 -64 -789 -70 -850 -5 -60 -19 -227
-30 -370 -11 -143 -22 -282 -25 -310 -3 -27 -14 -165 -25 -305 -11 -140 -22
-277 -25 -305 -2 -27 -11 -142 -20 -255 -18 -232 -34 -325 -76 -424 -16 -37
-29 -70 -29 -72 0 -2 1050 -3 2333 -1 l2332 2 -3 60 c-5 127 -51 479 -93 725
-64 373 -155 772 -260 1140 -39 139 -204 648 -233 720 -4 9 44 -33 106 -93
165 -160 269 -240 383 -296 126 -62 212 -84 335 -83 317 2 618 218 873 624 30
48 56 85 58 83 2 -2 50 -9 107 -15 188 -20 384 15 558 101 249 122 367 292
368 532 l1 97 140 -1 c172 -2 253 15 384 78 147 70 260 195 327 363 55 135 88
336 83 500 l-3 85 89 7 c486 39 794 257 895 633 41 154 38 403 -9 599 l-18 74
66 18 c446 120 710 404 771 829 20 140 12 300 -26 516 l-6 36 79 42 c416 222
513 639 273 1171 -26 58 -68 140 -94 183 -25 43 -46 81 -46 84 0 3 36 43 80
89 152 158 231 318 259 519 15 104 14 169 -5 293 -38 257 -183 577 -381 840
l-54 73 43 47 c196 211 312 459 338 721 33 331 -105 726 -364 1040 l-45 54 45
90 c52 103 105 255 131 377 25 120 26 429 0 550 -64 305 -205 579 -430 840
l-73 85 62 130 c170 359 244 647 246 960 1 319 -72 564 -243 819 -106 159
-258 311 -414 416 -27 18 -51 34 -53 35 -1 1 14 51 33 110 46 144 90 322 115
469 107 633 -33 1225 -398 1677 -80 99 -254 264 -325 309 l-56 35 7 60 c14
126 5 493 -17 658 -72 535 -248 1047 -534 1552 -134 236 -207 332 -413 545
-188 194 -349 315 -496 373 -82 33 -181 36 -243 8z m169 -241 c125 -56 377
-284 578 -520 72 -86 181 -267 287 -481 302 -604 447 -1197 428 -1749 -7 -203
-27 -349 -78 -549 -55 -218 -114 -357 -361 -851 -256 -514 -397 -788 -956
-1860 -341 -654 -977 -1865 -1382 -2630 -147 -278 -352 -665 -455 -860 -103
-195 -261 -492 -350 -660 -89 -168 -278 -523 -420 -790 -142 -267 -277 -521
-300 -565 -24 -44 -186 -348 -360 -675 -174 -327 -332 -622 -350 -655 -17 -33
-114 -214 -215 -403 -101 -189 -186 -339 -190 -335 -13 14 -195 421 -258 578
-215 535 -296 876 -295 1250 0 406 111 804 367 1322 212 428 427 783 962 1588
236 355 419 641 581 910 1108 1839 2087 3995 2508 5525 233 844 295 1434 205
1935 -46 255 -46 495 0 495 6 0 30 -9 54 -20z m1642 -3374 c252 -274 400 -612
443 -1016 13 -116 6 -361 -14 -495 -65 -438 -235 -880 -528 -1369 -125 -210
-220 -347 -638 -926 -482 -666 -1246 -1734 -1786 -2495 -93 -132 -269 -379
-390 -550 -221 -312 -758 -1071 -999 -1415 -72 -102 -243 -345 -381 -540 -399
-567 -496 -706 -871 -1240 -195 -278 -358 -506 -362 -508 -5 -2 -12 7 -15 19
-4 13 -21 45 -37 71 l-30 48 168 313 c92 171 193 359 224 417 32 58 128 238
215 400 202 378 232 434 265 495 15 28 48 88 73 135 25 47 165 310 312 585
364 681 1204 2256 1272 2385 31 58 91 170 133 250 149 280 318 596 375 705 32
61 95 180 140 265 46 85 190 358 320 605 131 248 257 486 280 530 24 44 143
271 265 505 122 234 246 470 275 525 459 872 934 1816 1009 2007 46 117 126
384 126 420 0 17 5 16 40 -12 22 -18 74 -69 116 -114z m478 -2458 c143 -112
261 -242 345 -382 270 -454 190 -1071 -229 -1761 -568 -937 -2338 -2804 -5040
-5315 -269 -249 -931 -854 -953 -869 -28 -20 50 97 303 454 86 121 295 416
465 655 169 239 412 581 540 760 127 179 411 577 630 885 1049 1472 2290 3204
2890 4030 600 827 721 1013 910 1408 44 92 84 167 89 167 4 0 27 -14 50 -32z
m369 -2385 c110 -138 211 -310 267 -455 72 -184 99 -449 66 -641 -52 -304
-212 -590 -495 -881 -177 -182 -275 -261 -791 -642 -52 -39 -147 -109 -210
-155 -776 -575 -2332 -1684 -3160 -2252 -58 -40 -156 -108 -219 -151 -293
-202 -1015 -686 -1286 -861 -122 -79 -303 -193 -323 -204 -20 -11 -22 -9 -22
17 0 22 11 38 50 69 114 93 1013 916 1575 1442 1181 1106 2419 2339 3149 3135
565 615 1019 1168 1251 1523 44 67 83 122 87 122 4 1 31 -29 61 -66z m322
-1950 c73 -104 169 -297 200 -406 50 -176 54 -328 14 -484 -56 -221 -202 -430
-427 -610 -503 -404 -1851 -1109 -4037 -2113 -633 -290 -2140 -960 -2161 -960
-11 0 -2 29 12 34 106 41 2017 1324 2644 1776 36 26 173 123 305 215 905 637
2575 1852 2852 2076 119 96 369 346 453 453 41 53 78 96 82 96 4 0 32 -35 63
-77z m-33 -1785 c148 -204 258 -426 309 -623 34 -135 33 -320 -4 -430 -48
-146 -173 -301 -321 -399 -518 -343 -2313 -832 -5381 -1465 -379 -78 -953
-191 -971 -191 -8 0 -14 10 -14 23 0 17 12 27 53 44 412 174 1599 702 2207
981 2054 942 3482 1683 3996 2072 37 27 70 50 74 50 3 0 27 -28 52 -62z m122
-1893 c67 -135 107 -245 127 -353 17 -88 7 -233 -21 -305 -50 -133 -187 -247
-374 -313 -248 -88 -893 -183 -1721 -254 -132 -11 -265 -22 -295 -25 -112 -10
-311 -25 -525 -40 -121 -8 -254 -17 -295 -20 -99 -7 -404 -25 -660 -40 -52 -3
-131 -8 -175 -10 -117 -7 -433 -24 -560 -30 -202 -9 -329 -16 -420 -20 -49 -2
-148 -7 -220 -10 -71 -3 -175 -7 -230 -10 -55 -3 -167 -7 -250 -10 -82 -3
-190 -8 -240 -10 -49 -2 -171 -7 -270 -10 -99 -3 -218 -8 -265 -9 -47 -2 -76
-2 -65 1 11 3 286 58 610 123 2808 563 4787 1069 5565 1424 75 34 147 70 160
79 24 17 25 16 42 -5 10 -13 46 -81 82 -153z m-323 -1322 c8 -41 14 -133 14
-228 0 -177 -16 -259 -76 -380 -121 -246 -382 -390 -789 -435 -577 -63 -1909
69 -3765 375 -577 95 -1580 274 -1572 281 1 1 101 5 222 8 812 23 1071 32
1550 51 150 6 852 41 1000 50 105 6 238 14 485 30 364 23 899 62 1100 80 825
74 1293 131 1625 199 88 18 167 34 176 35 13 1 20 -15 30 -66z m-6114 -648
c1608 -318 3497 -592 4398 -640 61 -3 131 -8 157 -10 70 -8 568 -7 656 0 l78
7 12 -38 c41 -140 54 -371 27 -499 -90 -427 -560 -571 -1349 -414 -844 168
-2224 676 -3856 1419 -289 131 -320 147 -320 164 0 16 10 46 15 46 2 0 84 -16
182 -35z m-114 -341 c253 -119 783 -354 1107 -491 1396 -592 2522 -961 3202
-1050 l128 -17 6 -34 c10 -52 -2 -256 -20 -342 -21 -100 -85 -227 -142 -285
-52 -51 -133 -95 -209 -114 -74 -19 -219 -21 -307 -5 -544 98 -1984 879 -3701
2007 -166 110 -306 203 -311 207 -4 5 7 41 26 82 20 40 38 83 42 96 4 12 9 22
12 22 2 0 77 -34 167 -76z m-118 -510 c1430 -941 2712 -1668 3440 -1949 159
-61 160 -62 174 -101 9 -22 15 -76 15 -124 1 -73 -3 -93 -27 -142 -70 -143
-283 -251 -523 -265 -79 -5 -104 -2 -185 21 -486 138 -1443 873 -2619 2010
-124 120 -309 304 -411 409 l-186 192 36 57 c19 31 40 54 46 50 5 -3 114 -74
240 -158z m-259 -355 c239 -241 699 -684 934 -900 744 -684 1407 -1191 1838
-1408 45 -23 82 -45 82 -50 0 -17 -117 -185 -179 -256 -265 -306 -539 -368
-808 -184 -115 79 -444 424 -734 770 -109 131 -128 160 -218 334 -239 463
-513 880 -817 1245 -151 181 -374 419 -498 530 -52 47 -95 88 -95 91 -1 3 28
9 63 12 35 3 90 17 122 31 33 13 62 25 65 25 4 1 114 -107 245 -240z"/>
<path d="M23651 25924 c-128 -34 -244 -131 -304 -254 -65 -131 -65 -125 -13
-760 26 -311 48 -590 51 -620 3 -30 14 -165 25 -300 23 -291 88 -1080 95
-1165 3 -33 21 -256 40 -495 20 -239 46 -568 60 -730 13 -162 40 -493 60 -735
19 -242 38 -465 40 -495 3 -30 12 -138 20 -240 48 -604 66 -807 76 -844 45
-173 198 -317 377 -355 37 -8 292 -11 830 -10 701 0 783 2 843 17 180 47 330
210 358 390 6 37 22 218 36 402 22 277 51 639 80 985 3 33 14 173 25 310 27
335 40 489 45 555 4 48 13 152 30 365 73 901 95 1172 100 1230 3 39 10 120 16
180 5 61 32 391 59 735 28 344 52 648 55 675 41 427 58 710 47 774 -22 133
-128 280 -248 343 -113 61 -48 58 -1459 57 -1097 0 -1298 -2 -1344 -15z"/>
<path d="M18912 18755 c-203 -55 -334 -226 -333 -435 1 -196 120 -360 311
-426 54 -19 189 -19 6110 -19 5884 0 6057 1 6110 19 141 47 244 152 296 300
23 63 20 199 -6 271 -43 124 -141 226 -268 277 l-57 23 -6055 2 c-5205 1
-6062 0 -6108 -12z"/>
</g>
</svg>
